G04 #@! TF.GenerationSoftware,KiCad,Pcbnew,5.1.4+dfsg1-2*
G04 #@! TF.CreationDate,2019-11-28T17:33:19+01:00*
G04 #@! TF.ProjectId,cpu_board,6370755f-626f-4617-9264-2e6b69636164,rev?*
G04 #@! TF.SameCoordinates,Original*
G04 #@! TF.FileFunction,Legend,Top*
G04 #@! TF.FilePolarity,Positive*
%FSLAX46Y46*%
G04 Gerber Fmt 4.6, Leading zero omitted, Abs format (unit mm)*
G04 Created by KiCad (PCBNEW 5.1.4+dfsg1-2) date 2019-11-28 17:33:19*
%MOMM*%
%LPD*%
G04 APERTURE LIST*
%ADD10C,0.150000*%
%ADD11C,0.120000*%
G04 APERTURE END LIST*
D10*
X86728571Y-75876190D02*
X86728571Y-76638095D01*
X87300000Y-77638095D02*
X87347619Y-77542857D01*
X87347619Y-77400000D01*
X87300000Y-77257142D01*
X87204761Y-77161904D01*
X87109523Y-77114285D01*
X86919047Y-77066666D01*
X86776190Y-77066666D01*
X86585714Y-77114285D01*
X86490476Y-77161904D01*
X86395238Y-77257142D01*
X86347619Y-77400000D01*
X86347619Y-77495238D01*
X86395238Y-77638095D01*
X86442857Y-77685714D01*
X86776190Y-77685714D01*
X86776190Y-77495238D01*
X86347619Y-78114285D02*
X87347619Y-78114285D01*
X86347619Y-78685714D01*
X87347619Y-78685714D01*
X86347619Y-79161904D02*
X87347619Y-79161904D01*
X87347619Y-79400000D01*
X87300000Y-79542857D01*
X87204761Y-79638095D01*
X87109523Y-79685714D01*
X86919047Y-79733333D01*
X86776190Y-79733333D01*
X86585714Y-79685714D01*
X86490476Y-79638095D01*
X86395238Y-79542857D01*
X86347619Y-79400000D01*
X86347619Y-79161904D01*
X86728571Y-80161904D02*
X86728571Y-80923809D01*
X86728571Y-102376190D02*
X86728571Y-103138095D01*
X87300000Y-104138095D02*
X87347619Y-104042857D01*
X87347619Y-103900000D01*
X87300000Y-103757142D01*
X87204761Y-103661904D01*
X87109523Y-103614285D01*
X86919047Y-103566666D01*
X86776190Y-103566666D01*
X86585714Y-103614285D01*
X86490476Y-103661904D01*
X86395238Y-103757142D01*
X86347619Y-103900000D01*
X86347619Y-103995238D01*
X86395238Y-104138095D01*
X86442857Y-104185714D01*
X86776190Y-104185714D01*
X86776190Y-103995238D01*
X86347619Y-104614285D02*
X87347619Y-104614285D01*
X86347619Y-105185714D01*
X87347619Y-105185714D01*
X86347619Y-105661904D02*
X87347619Y-105661904D01*
X87347619Y-105900000D01*
X87300000Y-106042857D01*
X87204761Y-106138095D01*
X87109523Y-106185714D01*
X86919047Y-106233333D01*
X86776190Y-106233333D01*
X86585714Y-106185714D01*
X86490476Y-106138095D01*
X86395238Y-106042857D01*
X86347619Y-105900000D01*
X86347619Y-105661904D01*
X86728571Y-106661904D02*
X86728571Y-107423809D01*
D11*
X134690476Y-128650000D02*
X134614285Y-128611904D01*
X134500000Y-128611904D01*
X134385714Y-128650000D01*
X134309523Y-128726190D01*
X134271428Y-128802380D01*
X134233333Y-128954761D01*
X134233333Y-129069047D01*
X134271428Y-129221428D01*
X134309523Y-129297619D01*
X134385714Y-129373809D01*
X134500000Y-129411904D01*
X134576190Y-129411904D01*
X134690476Y-129373809D01*
X134728571Y-129335714D01*
X134728571Y-129069047D01*
X134576190Y-129069047D01*
X135071428Y-129411904D02*
X135071428Y-128611904D01*
X135528571Y-129411904D01*
X135528571Y-128611904D01*
X135909523Y-129411904D02*
X135909523Y-128611904D01*
X136100000Y-128611904D01*
X136214285Y-128650000D01*
X136290476Y-128726190D01*
X136328571Y-128802380D01*
X136366666Y-128954761D01*
X136366666Y-129069047D01*
X136328571Y-129221428D01*
X136290476Y-129297619D01*
X136214285Y-129373809D01*
X136100000Y-129411904D01*
X135909523Y-129411904D01*
X130371428Y-129107142D02*
X130980952Y-129107142D01*
X130676190Y-129411904D02*
X130676190Y-128802380D01*
X131742857Y-128611904D02*
X131361904Y-128611904D01*
X131323809Y-128992857D01*
X131361904Y-128954761D01*
X131438095Y-128916666D01*
X131628571Y-128916666D01*
X131704761Y-128954761D01*
X131742857Y-128992857D01*
X131780952Y-129069047D01*
X131780952Y-129259523D01*
X131742857Y-129335714D01*
X131704761Y-129373809D01*
X131628571Y-129411904D01*
X131438095Y-129411904D01*
X131361904Y-129373809D01*
X131323809Y-129335714D01*
X132009523Y-128611904D02*
X132276190Y-129411904D01*
X132542857Y-128611904D01*
X209590476Y-83000000D02*
X209514285Y-82961904D01*
X209400000Y-82961904D01*
X209285714Y-83000000D01*
X209209523Y-83076190D01*
X209171428Y-83152380D01*
X209133333Y-83304761D01*
X209133333Y-83419047D01*
X209171428Y-83571428D01*
X209209523Y-83647619D01*
X209285714Y-83723809D01*
X209400000Y-83761904D01*
X209476190Y-83761904D01*
X209590476Y-83723809D01*
X209628571Y-83685714D01*
X209628571Y-83419047D01*
X209476190Y-83419047D01*
X209971428Y-83761904D02*
X209971428Y-82961904D01*
X210428571Y-83761904D01*
X210428571Y-82961904D01*
X210809523Y-83761904D02*
X210809523Y-82961904D01*
X211000000Y-82961904D01*
X211114285Y-83000000D01*
X211190476Y-83076190D01*
X211228571Y-83152380D01*
X211266666Y-83304761D01*
X211266666Y-83419047D01*
X211228571Y-83571428D01*
X211190476Y-83647619D01*
X211114285Y-83723809D01*
X211000000Y-83761904D01*
X210809523Y-83761904D01*
X209171428Y-75807142D02*
X209780952Y-75807142D01*
X209476190Y-76111904D02*
X209476190Y-75502380D01*
X210542857Y-75311904D02*
X210161904Y-75311904D01*
X210123809Y-75692857D01*
X210161904Y-75654761D01*
X210238095Y-75616666D01*
X210428571Y-75616666D01*
X210504761Y-75654761D01*
X210542857Y-75692857D01*
X210580952Y-75769047D01*
X210580952Y-75959523D01*
X210542857Y-76035714D01*
X210504761Y-76073809D01*
X210428571Y-76111904D01*
X210238095Y-76111904D01*
X210161904Y-76073809D01*
X210123809Y-76035714D01*
X210809523Y-75311904D02*
X211076190Y-76111904D01*
X211342857Y-75311904D01*
X210066666Y-78711904D02*
X209800000Y-78330952D01*
X209609523Y-78711904D02*
X209609523Y-77911904D01*
X209914285Y-77911904D01*
X209990476Y-77950000D01*
X210028571Y-77988095D01*
X210066666Y-78064285D01*
X210066666Y-78178571D01*
X210028571Y-78254761D01*
X209990476Y-78292857D01*
X209914285Y-78330952D01*
X209609523Y-78330952D01*
X210333333Y-77911904D02*
X210866666Y-78711904D01*
X210866666Y-77911904D02*
X210333333Y-78711904D01*
X209590476Y-80411904D02*
X210047619Y-80411904D01*
X209819047Y-81211904D02*
X209819047Y-80411904D01*
X210238095Y-80411904D02*
X210771428Y-81211904D01*
X210771428Y-80411904D02*
X210238095Y-81211904D01*
X209171428Y-105107142D02*
X209780952Y-105107142D01*
X209476190Y-105411904D02*
X209476190Y-104802380D01*
X210542857Y-104611904D02*
X210161904Y-104611904D01*
X210123809Y-104992857D01*
X210161904Y-104954761D01*
X210238095Y-104916666D01*
X210428571Y-104916666D01*
X210504761Y-104954761D01*
X210542857Y-104992857D01*
X210580952Y-105069047D01*
X210580952Y-105259523D01*
X210542857Y-105335714D01*
X210504761Y-105373809D01*
X210428571Y-105411904D01*
X210238095Y-105411904D01*
X210161904Y-105373809D01*
X210123809Y-105335714D01*
X210809523Y-104611904D02*
X211076190Y-105411904D01*
X211342857Y-104611904D01*
X209590476Y-112300000D02*
X209514285Y-112261904D01*
X209400000Y-112261904D01*
X209285714Y-112300000D01*
X209209523Y-112376190D01*
X209171428Y-112452380D01*
X209133333Y-112604761D01*
X209133333Y-112719047D01*
X209171428Y-112871428D01*
X209209523Y-112947619D01*
X209285714Y-113023809D01*
X209400000Y-113061904D01*
X209476190Y-113061904D01*
X209590476Y-113023809D01*
X209628571Y-112985714D01*
X209628571Y-112719047D01*
X209476190Y-112719047D01*
X209971428Y-113061904D02*
X209971428Y-112261904D01*
X210428571Y-113061904D01*
X210428571Y-112261904D01*
X210809523Y-113061904D02*
X210809523Y-112261904D01*
X211000000Y-112261904D01*
X211114285Y-112300000D01*
X211190476Y-112376190D01*
X211228571Y-112452380D01*
X211266666Y-112604761D01*
X211266666Y-112719047D01*
X211228571Y-112871428D01*
X211190476Y-112947619D01*
X211114285Y-113023809D01*
X211000000Y-113061904D01*
X210809523Y-113061904D01*
X209247619Y-107973809D02*
X209361904Y-108011904D01*
X209552380Y-108011904D01*
X209628571Y-107973809D01*
X209666666Y-107935714D01*
X209704761Y-107859523D01*
X209704761Y-107783333D01*
X209666666Y-107707142D01*
X209628571Y-107669047D01*
X209552380Y-107630952D01*
X209400000Y-107592857D01*
X209323809Y-107554761D01*
X209285714Y-107516666D01*
X209247619Y-107440476D01*
X209247619Y-107364285D01*
X209285714Y-107288095D01*
X209323809Y-107250000D01*
X209400000Y-107211904D01*
X209590476Y-107211904D01*
X209704761Y-107250000D01*
X210504761Y-107935714D02*
X210466666Y-107973809D01*
X210352380Y-108011904D01*
X210276190Y-108011904D01*
X210161904Y-107973809D01*
X210085714Y-107897619D01*
X210047619Y-107821428D01*
X210009523Y-107669047D01*
X210009523Y-107554761D01*
X210047619Y-107402380D01*
X210085714Y-107326190D01*
X210161904Y-107250000D01*
X210276190Y-107211904D01*
X210352380Y-107211904D01*
X210466666Y-107250000D01*
X210504761Y-107288095D01*
X211228571Y-108011904D02*
X210847619Y-108011904D01*
X210847619Y-107211904D01*
X209228571Y-110473809D02*
X209342857Y-110511904D01*
X209533333Y-110511904D01*
X209609523Y-110473809D01*
X209647619Y-110435714D01*
X209685714Y-110359523D01*
X209685714Y-110283333D01*
X209647619Y-110207142D01*
X209609523Y-110169047D01*
X209533333Y-110130952D01*
X209380952Y-110092857D01*
X209304761Y-110054761D01*
X209266666Y-110016666D01*
X209228571Y-109940476D01*
X209228571Y-109864285D01*
X209266666Y-109788095D01*
X209304761Y-109750000D01*
X209380952Y-109711904D01*
X209571428Y-109711904D01*
X209685714Y-109750000D01*
X210028571Y-110511904D02*
X210028571Y-109711904D01*
X210219047Y-109711904D01*
X210333333Y-109750000D01*
X210409523Y-109826190D01*
X210447619Y-109902380D01*
X210485714Y-110054761D01*
X210485714Y-110169047D01*
X210447619Y-110321428D01*
X210409523Y-110397619D01*
X210333333Y-110473809D01*
X210219047Y-110511904D01*
X210028571Y-110511904D01*
X210790476Y-110283333D02*
X211171428Y-110283333D01*
X210714285Y-110511904D02*
X210980952Y-109711904D01*
X211247619Y-110511904D01*
D10*
X91161904Y-128352380D02*
X91161904Y-127352380D01*
X91542857Y-127352380D01*
X91638095Y-127400000D01*
X91685714Y-127447619D01*
X91733333Y-127542857D01*
X91733333Y-127685714D01*
X91685714Y-127780952D01*
X91638095Y-127828571D01*
X91542857Y-127876190D01*
X91161904Y-127876190D01*
X92495238Y-127828571D02*
X92638095Y-127876190D01*
X92685714Y-127923809D01*
X92733333Y-128019047D01*
X92733333Y-128161904D01*
X92685714Y-128257142D01*
X92638095Y-128304761D01*
X92542857Y-128352380D01*
X92161904Y-128352380D01*
X92161904Y-127352380D01*
X92495238Y-127352380D01*
X92590476Y-127400000D01*
X92638095Y-127447619D01*
X92685714Y-127542857D01*
X92685714Y-127638095D01*
X92638095Y-127733333D01*
X92590476Y-127780952D01*
X92495238Y-127828571D01*
X92161904Y-127828571D01*
X93066666Y-127352380D02*
X93685714Y-127352380D01*
X93352380Y-127733333D01*
X93495238Y-127733333D01*
X93590476Y-127780952D01*
X93638095Y-127828571D01*
X93685714Y-127923809D01*
X93685714Y-128161904D01*
X93638095Y-128257142D01*
X93590476Y-128304761D01*
X93495238Y-128352380D01*
X93209523Y-128352380D01*
X93114285Y-128304761D01*
X93066666Y-128257142D01*
X91161904Y-123302380D02*
X91161904Y-122302380D01*
X91542857Y-122302380D01*
X91638095Y-122350000D01*
X91685714Y-122397619D01*
X91733333Y-122492857D01*
X91733333Y-122635714D01*
X91685714Y-122730952D01*
X91638095Y-122778571D01*
X91542857Y-122826190D01*
X91161904Y-122826190D01*
X92495238Y-122778571D02*
X92638095Y-122826190D01*
X92685714Y-122873809D01*
X92733333Y-122969047D01*
X92733333Y-123111904D01*
X92685714Y-123207142D01*
X92638095Y-123254761D01*
X92542857Y-123302380D01*
X92161904Y-123302380D01*
X92161904Y-122302380D01*
X92495238Y-122302380D01*
X92590476Y-122350000D01*
X92638095Y-122397619D01*
X92685714Y-122492857D01*
X92685714Y-122588095D01*
X92638095Y-122683333D01*
X92590476Y-122730952D01*
X92495238Y-122778571D01*
X92161904Y-122778571D01*
X93638095Y-122302380D02*
X93161904Y-122302380D01*
X93114285Y-122778571D01*
X93161904Y-122730952D01*
X93257142Y-122683333D01*
X93495238Y-122683333D01*
X93590476Y-122730952D01*
X93638095Y-122778571D01*
X93685714Y-122873809D01*
X93685714Y-123111904D01*
X93638095Y-123207142D01*
X93590476Y-123254761D01*
X93495238Y-123302380D01*
X93257142Y-123302380D01*
X93161904Y-123254761D01*
X93114285Y-123207142D01*
X91161904Y-113152380D02*
X91161904Y-112152380D01*
X91542857Y-112152380D01*
X91638095Y-112200000D01*
X91685714Y-112247619D01*
X91733333Y-112342857D01*
X91733333Y-112485714D01*
X91685714Y-112580952D01*
X91638095Y-112628571D01*
X91542857Y-112676190D01*
X91161904Y-112676190D01*
X92495238Y-112628571D02*
X92638095Y-112676190D01*
X92685714Y-112723809D01*
X92733333Y-112819047D01*
X92733333Y-112961904D01*
X92685714Y-113057142D01*
X92638095Y-113104761D01*
X92542857Y-113152380D01*
X92161904Y-113152380D01*
X92161904Y-112152380D01*
X92495238Y-112152380D01*
X92590476Y-112200000D01*
X92638095Y-112247619D01*
X92685714Y-112342857D01*
X92685714Y-112438095D01*
X92638095Y-112533333D01*
X92590476Y-112580952D01*
X92495238Y-112628571D01*
X92161904Y-112628571D01*
X93685714Y-113152380D02*
X93114285Y-113152380D01*
X93400000Y-113152380D02*
X93400000Y-112152380D01*
X93304761Y-112295238D01*
X93209523Y-112390476D01*
X93114285Y-112438095D01*
X91161904Y-118202380D02*
X91161904Y-117202380D01*
X91542857Y-117202380D01*
X91638095Y-117250000D01*
X91685714Y-117297619D01*
X91733333Y-117392857D01*
X91733333Y-117535714D01*
X91685714Y-117630952D01*
X91638095Y-117678571D01*
X91542857Y-117726190D01*
X91161904Y-117726190D01*
X92495238Y-117678571D02*
X92638095Y-117726190D01*
X92685714Y-117773809D01*
X92733333Y-117869047D01*
X92733333Y-118011904D01*
X92685714Y-118107142D01*
X92638095Y-118154761D01*
X92542857Y-118202380D01*
X92161904Y-118202380D01*
X92161904Y-117202380D01*
X92495238Y-117202380D01*
X92590476Y-117250000D01*
X92638095Y-117297619D01*
X92685714Y-117392857D01*
X92685714Y-117488095D01*
X92638095Y-117583333D01*
X92590476Y-117630952D01*
X92495238Y-117678571D01*
X92161904Y-117678571D01*
X93066666Y-117202380D02*
X93733333Y-117202380D01*
X93304761Y-118202380D01*
X91161904Y-120752380D02*
X91161904Y-119752380D01*
X91542857Y-119752380D01*
X91638095Y-119800000D01*
X91685714Y-119847619D01*
X91733333Y-119942857D01*
X91733333Y-120085714D01*
X91685714Y-120180952D01*
X91638095Y-120228571D01*
X91542857Y-120276190D01*
X91161904Y-120276190D01*
X92495238Y-120228571D02*
X92638095Y-120276190D01*
X92685714Y-120323809D01*
X92733333Y-120419047D01*
X92733333Y-120561904D01*
X92685714Y-120657142D01*
X92638095Y-120704761D01*
X92542857Y-120752380D01*
X92161904Y-120752380D01*
X92161904Y-119752380D01*
X92495238Y-119752380D01*
X92590476Y-119800000D01*
X92638095Y-119847619D01*
X92685714Y-119942857D01*
X92685714Y-120038095D01*
X92638095Y-120133333D01*
X92590476Y-120180952D01*
X92495238Y-120228571D01*
X92161904Y-120228571D01*
X93590476Y-119752380D02*
X93400000Y-119752380D01*
X93304761Y-119800000D01*
X93257142Y-119847619D01*
X93161904Y-119990476D01*
X93114285Y-120180952D01*
X93114285Y-120561904D01*
X93161904Y-120657142D01*
X93209523Y-120704761D01*
X93304761Y-120752380D01*
X93495238Y-120752380D01*
X93590476Y-120704761D01*
X93638095Y-120657142D01*
X93685714Y-120561904D01*
X93685714Y-120323809D01*
X93638095Y-120228571D01*
X93590476Y-120180952D01*
X93495238Y-120133333D01*
X93304761Y-120133333D01*
X93209523Y-120180952D01*
X93161904Y-120228571D01*
X93114285Y-120323809D01*
X91161904Y-110602380D02*
X91161904Y-109602380D01*
X91542857Y-109602380D01*
X91638095Y-109650000D01*
X91685714Y-109697619D01*
X91733333Y-109792857D01*
X91733333Y-109935714D01*
X91685714Y-110030952D01*
X91638095Y-110078571D01*
X91542857Y-110126190D01*
X91161904Y-110126190D01*
X92495238Y-110078571D02*
X92638095Y-110126190D01*
X92685714Y-110173809D01*
X92733333Y-110269047D01*
X92733333Y-110411904D01*
X92685714Y-110507142D01*
X92638095Y-110554761D01*
X92542857Y-110602380D01*
X92161904Y-110602380D01*
X92161904Y-109602380D01*
X92495238Y-109602380D01*
X92590476Y-109650000D01*
X92638095Y-109697619D01*
X92685714Y-109792857D01*
X92685714Y-109888095D01*
X92638095Y-109983333D01*
X92590476Y-110030952D01*
X92495238Y-110078571D01*
X92161904Y-110078571D01*
X93352380Y-109602380D02*
X93447619Y-109602380D01*
X93542857Y-109650000D01*
X93590476Y-109697619D01*
X93638095Y-109792857D01*
X93685714Y-109983333D01*
X93685714Y-110221428D01*
X93638095Y-110411904D01*
X93590476Y-110507142D01*
X93542857Y-110554761D01*
X93447619Y-110602380D01*
X93352380Y-110602380D01*
X93257142Y-110554761D01*
X93209523Y-110507142D01*
X93161904Y-110411904D01*
X93114285Y-110221428D01*
X93114285Y-109983333D01*
X93161904Y-109792857D01*
X93209523Y-109697619D01*
X93257142Y-109650000D01*
X93352380Y-109602380D01*
X91161904Y-115702380D02*
X91161904Y-114702380D01*
X91542857Y-114702380D01*
X91638095Y-114750000D01*
X91685714Y-114797619D01*
X91733333Y-114892857D01*
X91733333Y-115035714D01*
X91685714Y-115130952D01*
X91638095Y-115178571D01*
X91542857Y-115226190D01*
X91161904Y-115226190D01*
X92495238Y-115178571D02*
X92638095Y-115226190D01*
X92685714Y-115273809D01*
X92733333Y-115369047D01*
X92733333Y-115511904D01*
X92685714Y-115607142D01*
X92638095Y-115654761D01*
X92542857Y-115702380D01*
X92161904Y-115702380D01*
X92161904Y-114702380D01*
X92495238Y-114702380D01*
X92590476Y-114750000D01*
X92638095Y-114797619D01*
X92685714Y-114892857D01*
X92685714Y-114988095D01*
X92638095Y-115083333D01*
X92590476Y-115130952D01*
X92495238Y-115178571D01*
X92161904Y-115178571D01*
X93114285Y-114797619D02*
X93161904Y-114750000D01*
X93257142Y-114702380D01*
X93495238Y-114702380D01*
X93590476Y-114750000D01*
X93638095Y-114797619D01*
X93685714Y-114892857D01*
X93685714Y-114988095D01*
X93638095Y-115130952D01*
X93066666Y-115702380D01*
X93685714Y-115702380D01*
X91161904Y-125852380D02*
X91161904Y-124852380D01*
X91542857Y-124852380D01*
X91638095Y-124900000D01*
X91685714Y-124947619D01*
X91733333Y-125042857D01*
X91733333Y-125185714D01*
X91685714Y-125280952D01*
X91638095Y-125328571D01*
X91542857Y-125376190D01*
X91161904Y-125376190D01*
X92495238Y-125328571D02*
X92638095Y-125376190D01*
X92685714Y-125423809D01*
X92733333Y-125519047D01*
X92733333Y-125661904D01*
X92685714Y-125757142D01*
X92638095Y-125804761D01*
X92542857Y-125852380D01*
X92161904Y-125852380D01*
X92161904Y-124852380D01*
X92495238Y-124852380D01*
X92590476Y-124900000D01*
X92638095Y-124947619D01*
X92685714Y-125042857D01*
X92685714Y-125138095D01*
X92638095Y-125233333D01*
X92590476Y-125280952D01*
X92495238Y-125328571D01*
X92161904Y-125328571D01*
X93590476Y-125185714D02*
X93590476Y-125852380D01*
X93352380Y-124804761D02*
X93114285Y-125519047D01*
X93733333Y-125519047D01*
X91161904Y-95302380D02*
X91161904Y-94302380D01*
X91542857Y-94302380D01*
X91638095Y-94350000D01*
X91685714Y-94397619D01*
X91733333Y-94492857D01*
X91733333Y-94635714D01*
X91685714Y-94730952D01*
X91638095Y-94778571D01*
X91542857Y-94826190D01*
X91161904Y-94826190D01*
X92733333Y-95207142D02*
X92685714Y-95254761D01*
X92542857Y-95302380D01*
X92447619Y-95302380D01*
X92304761Y-95254761D01*
X92209523Y-95159523D01*
X92161904Y-95064285D01*
X92114285Y-94873809D01*
X92114285Y-94730952D01*
X92161904Y-94540476D01*
X92209523Y-94445238D01*
X92304761Y-94350000D01*
X92447619Y-94302380D01*
X92542857Y-94302380D01*
X92685714Y-94350000D01*
X92733333Y-94397619D01*
X93685714Y-95302380D02*
X93114285Y-95302380D01*
X93400000Y-95302380D02*
X93400000Y-94302380D01*
X93304761Y-94445238D01*
X93209523Y-94540476D01*
X93114285Y-94588095D01*
X91161904Y-92752380D02*
X91161904Y-91752380D01*
X91542857Y-91752380D01*
X91638095Y-91800000D01*
X91685714Y-91847619D01*
X91733333Y-91942857D01*
X91733333Y-92085714D01*
X91685714Y-92180952D01*
X91638095Y-92228571D01*
X91542857Y-92276190D01*
X91161904Y-92276190D01*
X92733333Y-92657142D02*
X92685714Y-92704761D01*
X92542857Y-92752380D01*
X92447619Y-92752380D01*
X92304761Y-92704761D01*
X92209523Y-92609523D01*
X92161904Y-92514285D01*
X92114285Y-92323809D01*
X92114285Y-92180952D01*
X92161904Y-91990476D01*
X92209523Y-91895238D01*
X92304761Y-91800000D01*
X92447619Y-91752380D01*
X92542857Y-91752380D01*
X92685714Y-91800000D01*
X92733333Y-91847619D01*
X93352380Y-91752380D02*
X93447619Y-91752380D01*
X93542857Y-91800000D01*
X93590476Y-91847619D01*
X93638095Y-91942857D01*
X93685714Y-92133333D01*
X93685714Y-92371428D01*
X93638095Y-92561904D01*
X93590476Y-92657142D01*
X93542857Y-92704761D01*
X93447619Y-92752380D01*
X93352380Y-92752380D01*
X93257142Y-92704761D01*
X93209523Y-92657142D01*
X93161904Y-92561904D01*
X93114285Y-92371428D01*
X93114285Y-92133333D01*
X93161904Y-91942857D01*
X93209523Y-91847619D01*
X93257142Y-91800000D01*
X93352380Y-91752380D01*
X91161904Y-85152380D02*
X91161904Y-84152380D01*
X91542857Y-84152380D01*
X91638095Y-84200000D01*
X91685714Y-84247619D01*
X91733333Y-84342857D01*
X91733333Y-84485714D01*
X91685714Y-84580952D01*
X91638095Y-84628571D01*
X91542857Y-84676190D01*
X91161904Y-84676190D01*
X92733333Y-85057142D02*
X92685714Y-85104761D01*
X92542857Y-85152380D01*
X92447619Y-85152380D01*
X92304761Y-85104761D01*
X92209523Y-85009523D01*
X92161904Y-84914285D01*
X92114285Y-84723809D01*
X92114285Y-84580952D01*
X92161904Y-84390476D01*
X92209523Y-84295238D01*
X92304761Y-84200000D01*
X92447619Y-84152380D01*
X92542857Y-84152380D01*
X92685714Y-84200000D01*
X92733333Y-84247619D01*
X93590476Y-84152380D02*
X93400000Y-84152380D01*
X93304761Y-84200000D01*
X93257142Y-84247619D01*
X93161904Y-84390476D01*
X93114285Y-84580952D01*
X93114285Y-84961904D01*
X93161904Y-85057142D01*
X93209523Y-85104761D01*
X93304761Y-85152380D01*
X93495238Y-85152380D01*
X93590476Y-85104761D01*
X93638095Y-85057142D01*
X93685714Y-84961904D01*
X93685714Y-84723809D01*
X93638095Y-84628571D01*
X93590476Y-84580952D01*
X93495238Y-84533333D01*
X93304761Y-84533333D01*
X93209523Y-84580952D01*
X93161904Y-84628571D01*
X93114285Y-84723809D01*
X91161904Y-82602380D02*
X91161904Y-81602380D01*
X91542857Y-81602380D01*
X91638095Y-81650000D01*
X91685714Y-81697619D01*
X91733333Y-81792857D01*
X91733333Y-81935714D01*
X91685714Y-82030952D01*
X91638095Y-82078571D01*
X91542857Y-82126190D01*
X91161904Y-82126190D01*
X92733333Y-82507142D02*
X92685714Y-82554761D01*
X92542857Y-82602380D01*
X92447619Y-82602380D01*
X92304761Y-82554761D01*
X92209523Y-82459523D01*
X92161904Y-82364285D01*
X92114285Y-82173809D01*
X92114285Y-82030952D01*
X92161904Y-81840476D01*
X92209523Y-81745238D01*
X92304761Y-81650000D01*
X92447619Y-81602380D01*
X92542857Y-81602380D01*
X92685714Y-81650000D01*
X92733333Y-81697619D01*
X93066666Y-81602380D02*
X93733333Y-81602380D01*
X93304761Y-82602380D01*
X91161904Y-90202380D02*
X91161904Y-89202380D01*
X91542857Y-89202380D01*
X91638095Y-89250000D01*
X91685714Y-89297619D01*
X91733333Y-89392857D01*
X91733333Y-89535714D01*
X91685714Y-89630952D01*
X91638095Y-89678571D01*
X91542857Y-89726190D01*
X91161904Y-89726190D01*
X92733333Y-90107142D02*
X92685714Y-90154761D01*
X92542857Y-90202380D01*
X92447619Y-90202380D01*
X92304761Y-90154761D01*
X92209523Y-90059523D01*
X92161904Y-89964285D01*
X92114285Y-89773809D01*
X92114285Y-89630952D01*
X92161904Y-89440476D01*
X92209523Y-89345238D01*
X92304761Y-89250000D01*
X92447619Y-89202380D01*
X92542857Y-89202380D01*
X92685714Y-89250000D01*
X92733333Y-89297619D01*
X93590476Y-89535714D02*
X93590476Y-90202380D01*
X93352380Y-89154761D02*
X93114285Y-89869047D01*
X93733333Y-89869047D01*
X91161904Y-97852380D02*
X91161904Y-96852380D01*
X91542857Y-96852380D01*
X91638095Y-96900000D01*
X91685714Y-96947619D01*
X91733333Y-97042857D01*
X91733333Y-97185714D01*
X91685714Y-97280952D01*
X91638095Y-97328571D01*
X91542857Y-97376190D01*
X91161904Y-97376190D01*
X92733333Y-97757142D02*
X92685714Y-97804761D01*
X92542857Y-97852380D01*
X92447619Y-97852380D01*
X92304761Y-97804761D01*
X92209523Y-97709523D01*
X92161904Y-97614285D01*
X92114285Y-97423809D01*
X92114285Y-97280952D01*
X92161904Y-97090476D01*
X92209523Y-96995238D01*
X92304761Y-96900000D01*
X92447619Y-96852380D01*
X92542857Y-96852380D01*
X92685714Y-96900000D01*
X92733333Y-96947619D01*
X93114285Y-96947619D02*
X93161904Y-96900000D01*
X93257142Y-96852380D01*
X93495238Y-96852380D01*
X93590476Y-96900000D01*
X93638095Y-96947619D01*
X93685714Y-97042857D01*
X93685714Y-97138095D01*
X93638095Y-97280952D01*
X93066666Y-97852380D01*
X93685714Y-97852380D01*
X91161904Y-87702380D02*
X91161904Y-86702380D01*
X91542857Y-86702380D01*
X91638095Y-86750000D01*
X91685714Y-86797619D01*
X91733333Y-86892857D01*
X91733333Y-87035714D01*
X91685714Y-87130952D01*
X91638095Y-87178571D01*
X91542857Y-87226190D01*
X91161904Y-87226190D01*
X92733333Y-87607142D02*
X92685714Y-87654761D01*
X92542857Y-87702380D01*
X92447619Y-87702380D01*
X92304761Y-87654761D01*
X92209523Y-87559523D01*
X92161904Y-87464285D01*
X92114285Y-87273809D01*
X92114285Y-87130952D01*
X92161904Y-86940476D01*
X92209523Y-86845238D01*
X92304761Y-86750000D01*
X92447619Y-86702380D01*
X92542857Y-86702380D01*
X92685714Y-86750000D01*
X92733333Y-86797619D01*
X93638095Y-86702380D02*
X93161904Y-86702380D01*
X93114285Y-87178571D01*
X93161904Y-87130952D01*
X93257142Y-87083333D01*
X93495238Y-87083333D01*
X93590476Y-87130952D01*
X93638095Y-87178571D01*
X93685714Y-87273809D01*
X93685714Y-87511904D01*
X93638095Y-87607142D01*
X93590476Y-87654761D01*
X93495238Y-87702380D01*
X93257142Y-87702380D01*
X93161904Y-87654761D01*
X93114285Y-87607142D01*
X91161904Y-100352380D02*
X91161904Y-99352380D01*
X91542857Y-99352380D01*
X91638095Y-99400000D01*
X91685714Y-99447619D01*
X91733333Y-99542857D01*
X91733333Y-99685714D01*
X91685714Y-99780952D01*
X91638095Y-99828571D01*
X91542857Y-99876190D01*
X91161904Y-99876190D01*
X92733333Y-100257142D02*
X92685714Y-100304761D01*
X92542857Y-100352380D01*
X92447619Y-100352380D01*
X92304761Y-100304761D01*
X92209523Y-100209523D01*
X92161904Y-100114285D01*
X92114285Y-99923809D01*
X92114285Y-99780952D01*
X92161904Y-99590476D01*
X92209523Y-99495238D01*
X92304761Y-99400000D01*
X92447619Y-99352380D01*
X92542857Y-99352380D01*
X92685714Y-99400000D01*
X92733333Y-99447619D01*
X93066666Y-99352380D02*
X93685714Y-99352380D01*
X93352380Y-99733333D01*
X93495238Y-99733333D01*
X93590476Y-99780952D01*
X93638095Y-99828571D01*
X93685714Y-99923809D01*
X93685714Y-100161904D01*
X93638095Y-100257142D01*
X93590476Y-100304761D01*
X93495238Y-100352380D01*
X93209523Y-100352380D01*
X93114285Y-100304761D01*
X93066666Y-100257142D01*
X91183333Y-69952380D02*
X91183333Y-68952380D01*
X91564285Y-68952380D01*
X91659523Y-69000000D01*
X91707142Y-69047619D01*
X91754761Y-69142857D01*
X91754761Y-69285714D01*
X91707142Y-69380952D01*
X91659523Y-69428571D01*
X91564285Y-69476190D01*
X91183333Y-69476190D01*
X92135714Y-69666666D02*
X92611904Y-69666666D01*
X92040476Y-69952380D02*
X92373809Y-68952380D01*
X92707142Y-69952380D01*
X93516666Y-68952380D02*
X93040476Y-68952380D01*
X92992857Y-69428571D01*
X93040476Y-69380952D01*
X93135714Y-69333333D01*
X93373809Y-69333333D01*
X93469047Y-69380952D01*
X93516666Y-69428571D01*
X93564285Y-69523809D01*
X93564285Y-69761904D01*
X93516666Y-69857142D01*
X93469047Y-69904761D01*
X93373809Y-69952380D01*
X93135714Y-69952380D01*
X93040476Y-69904761D01*
X92992857Y-69857142D01*
X91183333Y-67402380D02*
X91183333Y-66402380D01*
X91564285Y-66402380D01*
X91659523Y-66450000D01*
X91707142Y-66497619D01*
X91754761Y-66592857D01*
X91754761Y-66735714D01*
X91707142Y-66830952D01*
X91659523Y-66878571D01*
X91564285Y-66926190D01*
X91183333Y-66926190D01*
X92135714Y-67116666D02*
X92611904Y-67116666D01*
X92040476Y-67402380D02*
X92373809Y-66402380D01*
X92707142Y-67402380D01*
X93469047Y-66735714D02*
X93469047Y-67402380D01*
X93230952Y-66354761D02*
X92992857Y-67069047D01*
X93611904Y-67069047D01*
X91183333Y-75002380D02*
X91183333Y-74002380D01*
X91564285Y-74002380D01*
X91659523Y-74050000D01*
X91707142Y-74097619D01*
X91754761Y-74192857D01*
X91754761Y-74335714D01*
X91707142Y-74430952D01*
X91659523Y-74478571D01*
X91564285Y-74526190D01*
X91183333Y-74526190D01*
X92135714Y-74716666D02*
X92611904Y-74716666D01*
X92040476Y-75002380D02*
X92373809Y-74002380D01*
X92707142Y-75002380D01*
X92945238Y-74002380D02*
X93611904Y-74002380D01*
X93183333Y-75002380D01*
X91183333Y-72502380D02*
X91183333Y-71502380D01*
X91564285Y-71502380D01*
X91659523Y-71550000D01*
X91707142Y-71597619D01*
X91754761Y-71692857D01*
X91754761Y-71835714D01*
X91707142Y-71930952D01*
X91659523Y-71978571D01*
X91564285Y-72026190D01*
X91183333Y-72026190D01*
X92135714Y-72216666D02*
X92611904Y-72216666D01*
X92040476Y-72502380D02*
X92373809Y-71502380D01*
X92707142Y-72502380D01*
X93469047Y-71502380D02*
X93278571Y-71502380D01*
X93183333Y-71550000D01*
X93135714Y-71597619D01*
X93040476Y-71740476D01*
X92992857Y-71930952D01*
X92992857Y-72311904D01*
X93040476Y-72407142D01*
X93088095Y-72454761D01*
X93183333Y-72502380D01*
X93373809Y-72502380D01*
X93469047Y-72454761D01*
X93516666Y-72407142D01*
X93564285Y-72311904D01*
X93564285Y-72073809D01*
X93516666Y-71978571D01*
X93469047Y-71930952D01*
X93373809Y-71883333D01*
X93183333Y-71883333D01*
X93088095Y-71930952D01*
X93040476Y-71978571D01*
X92992857Y-72073809D01*
X91183333Y-64852380D02*
X91183333Y-63852380D01*
X91564285Y-63852380D01*
X91659523Y-63900000D01*
X91707142Y-63947619D01*
X91754761Y-64042857D01*
X91754761Y-64185714D01*
X91707142Y-64280952D01*
X91659523Y-64328571D01*
X91564285Y-64376190D01*
X91183333Y-64376190D01*
X92135714Y-64566666D02*
X92611904Y-64566666D01*
X92040476Y-64852380D02*
X92373809Y-63852380D01*
X92707142Y-64852380D01*
X93230952Y-63852380D02*
X93326190Y-63852380D01*
X93421428Y-63900000D01*
X93469047Y-63947619D01*
X93516666Y-64042857D01*
X93564285Y-64233333D01*
X93564285Y-64471428D01*
X93516666Y-64661904D01*
X93469047Y-64757142D01*
X93421428Y-64804761D01*
X93326190Y-64852380D01*
X93230952Y-64852380D01*
X93135714Y-64804761D01*
X93088095Y-64757142D01*
X93040476Y-64661904D01*
X92992857Y-64471428D01*
X92992857Y-64233333D01*
X93040476Y-64042857D01*
X93088095Y-63947619D01*
X93135714Y-63900000D01*
X93230952Y-63852380D01*
X91183333Y-62352380D02*
X91183333Y-61352380D01*
X91564285Y-61352380D01*
X91659523Y-61400000D01*
X91707142Y-61447619D01*
X91754761Y-61542857D01*
X91754761Y-61685714D01*
X91707142Y-61780952D01*
X91659523Y-61828571D01*
X91564285Y-61876190D01*
X91183333Y-61876190D01*
X92135714Y-62066666D02*
X92611904Y-62066666D01*
X92040476Y-62352380D02*
X92373809Y-61352380D01*
X92707142Y-62352380D01*
X93564285Y-62352380D02*
X92992857Y-62352380D01*
X93278571Y-62352380D02*
X93278571Y-61352380D01*
X93183333Y-61495238D01*
X93088095Y-61590476D01*
X92992857Y-61638095D01*
X91183333Y-59802380D02*
X91183333Y-58802380D01*
X91564285Y-58802380D01*
X91659523Y-58850000D01*
X91707142Y-58897619D01*
X91754761Y-58992857D01*
X91754761Y-59135714D01*
X91707142Y-59230952D01*
X91659523Y-59278571D01*
X91564285Y-59326190D01*
X91183333Y-59326190D01*
X92135714Y-59516666D02*
X92611904Y-59516666D01*
X92040476Y-59802380D02*
X92373809Y-58802380D01*
X92707142Y-59802380D01*
X92992857Y-58897619D02*
X93040476Y-58850000D01*
X93135714Y-58802380D01*
X93373809Y-58802380D01*
X93469047Y-58850000D01*
X93516666Y-58897619D01*
X93564285Y-58992857D01*
X93564285Y-59088095D01*
X93516666Y-59230952D01*
X92945238Y-59802380D01*
X93564285Y-59802380D01*
X91183333Y-57252380D02*
X91183333Y-56252380D01*
X91564285Y-56252380D01*
X91659523Y-56300000D01*
X91707142Y-56347619D01*
X91754761Y-56442857D01*
X91754761Y-56585714D01*
X91707142Y-56680952D01*
X91659523Y-56728571D01*
X91564285Y-56776190D01*
X91183333Y-56776190D01*
X92135714Y-56966666D02*
X92611904Y-56966666D01*
X92040476Y-57252380D02*
X92373809Y-56252380D01*
X92707142Y-57252380D01*
X92945238Y-56252380D02*
X93564285Y-56252380D01*
X93230952Y-56633333D01*
X93373809Y-56633333D01*
X93469047Y-56680952D01*
X93516666Y-56728571D01*
X93564285Y-56823809D01*
X93564285Y-57061904D01*
X93516666Y-57157142D01*
X93469047Y-57204761D01*
X93373809Y-57252380D01*
X93088095Y-57252380D01*
X92992857Y-57204761D01*
X92945238Y-57157142D01*
D11*
X188325000Y-61845000D02*
X185525000Y-61845000D01*
X188325000Y-72175000D02*
X188325000Y-59135000D01*
X185525000Y-72175000D02*
X188325000Y-72175000D01*
X185525000Y-59135000D02*
X185525000Y-72175000D01*
X188325000Y-59135000D02*
X185525000Y-59135000D01*
X130720000Y-128230000D02*
X130720000Y-126900000D01*
X132050000Y-128230000D02*
X130720000Y-128230000D01*
X133320000Y-128230000D02*
X133320000Y-125570000D01*
X133320000Y-125570000D02*
X135920000Y-125570000D01*
X133320000Y-128230000D02*
X135920000Y-128230000D01*
X135920000Y-128230000D02*
X135920000Y-125570000D01*
X166360000Y-58500000D02*
X165670000Y-58500000D01*
X155740000Y-58500000D02*
X156430000Y-58500000D01*
X165670000Y-56780000D02*
X156430000Y-56780000D01*
X165670000Y-60220000D02*
X165670000Y-56780000D01*
X156430000Y-60220000D02*
X165670000Y-60220000D01*
X156430000Y-56780000D02*
X156430000Y-60220000D01*
X203170000Y-117195000D02*
X203170000Y-117820000D01*
X203170000Y-114980000D02*
X203170000Y-115605000D01*
X199130000Y-117195000D02*
X199130000Y-117820000D01*
X199130000Y-114980000D02*
X199130000Y-115605000D01*
X199130000Y-117820000D02*
X203170000Y-117820000D01*
X199130000Y-114980000D02*
X203170000Y-114980000D01*
X191430000Y-72605000D02*
X191430000Y-71980000D01*
X191430000Y-74820000D02*
X191430000Y-74195000D01*
X195470000Y-72605000D02*
X195470000Y-71980000D01*
X195470000Y-74820000D02*
X195470000Y-74195000D01*
X195470000Y-71980000D02*
X191430000Y-71980000D01*
X195470000Y-74820000D02*
X191430000Y-74820000D01*
X114455000Y-98120000D02*
X113830000Y-98120000D01*
X116670000Y-98120000D02*
X116045000Y-98120000D01*
X114455000Y-94080000D02*
X113830000Y-94080000D01*
X116670000Y-94080000D02*
X116045000Y-94080000D01*
X113830000Y-94080000D02*
X113830000Y-98120000D01*
X116670000Y-94080000D02*
X116670000Y-98120000D01*
X184980000Y-113355000D02*
X184980000Y-112730000D01*
X184980000Y-115570000D02*
X184980000Y-114945000D01*
X189020000Y-113355000D02*
X189020000Y-112730000D01*
X189020000Y-115570000D02*
X189020000Y-114945000D01*
X189020000Y-112730000D02*
X184980000Y-112730000D01*
X189020000Y-115570000D02*
X184980000Y-115570000D01*
X193480000Y-113355000D02*
X193480000Y-112730000D01*
X193480000Y-115570000D02*
X193480000Y-114945000D01*
X197520000Y-113355000D02*
X197520000Y-112730000D01*
X197520000Y-115570000D02*
X197520000Y-114945000D01*
X197520000Y-112730000D02*
X193480000Y-112730000D01*
X197520000Y-115570000D02*
X193480000Y-115570000D01*
X159480000Y-65455000D02*
X159480000Y-64830000D01*
X159480000Y-67670000D02*
X159480000Y-67045000D01*
X163520000Y-65455000D02*
X163520000Y-64830000D01*
X163520000Y-67670000D02*
X163520000Y-67045000D01*
X163520000Y-64830000D02*
X159480000Y-64830000D01*
X163520000Y-67670000D02*
X159480000Y-67670000D01*
X211105000Y-61420000D02*
X210480000Y-61420000D01*
X213320000Y-61420000D02*
X212695000Y-61420000D01*
X211105000Y-57380000D02*
X210480000Y-57380000D01*
X213320000Y-57380000D02*
X212695000Y-57380000D01*
X210480000Y-57380000D02*
X210480000Y-61420000D01*
X213320000Y-57380000D02*
X213320000Y-61420000D01*
X134705000Y-120220000D02*
X134080000Y-120220000D01*
X136920000Y-120220000D02*
X136295000Y-120220000D01*
X134705000Y-116180000D02*
X134080000Y-116180000D01*
X136920000Y-116180000D02*
X136295000Y-116180000D01*
X134080000Y-116180000D02*
X134080000Y-120220000D01*
X136920000Y-116180000D02*
X136920000Y-120220000D01*
X135045000Y-59080000D02*
X135670000Y-59080000D01*
X132830000Y-59080000D02*
X133455000Y-59080000D01*
X135045000Y-63120000D02*
X135670000Y-63120000D01*
X132830000Y-63120000D02*
X133455000Y-63120000D01*
X135670000Y-63120000D02*
X135670000Y-59080000D01*
X132830000Y-63120000D02*
X132830000Y-59080000D01*
X198895000Y-122980000D02*
X199520000Y-122980000D01*
X196680000Y-122980000D02*
X197305000Y-122980000D01*
X198895000Y-127020000D02*
X199520000Y-127020000D01*
X196680000Y-127020000D02*
X197305000Y-127020000D01*
X199520000Y-127020000D02*
X199520000Y-122980000D01*
X196680000Y-127020000D02*
X196680000Y-122980000D01*
X116045000Y-106880000D02*
X116670000Y-106880000D01*
X113830000Y-106880000D02*
X114455000Y-106880000D01*
X116045000Y-110920000D02*
X116670000Y-110920000D01*
X113830000Y-110920000D02*
X114455000Y-110920000D01*
X116670000Y-110920000D02*
X116670000Y-106880000D01*
X113830000Y-110920000D02*
X113830000Y-106880000D01*
X96255000Y-122870000D02*
X95630000Y-122870000D01*
X98470000Y-122870000D02*
X97845000Y-122870000D01*
X96255000Y-118830000D02*
X95630000Y-118830000D01*
X98470000Y-118830000D02*
X97845000Y-118830000D01*
X95630000Y-118830000D02*
X95630000Y-122870000D01*
X98470000Y-118830000D02*
X98470000Y-122870000D01*
X152720000Y-65695000D02*
X152720000Y-66320000D01*
X152720000Y-63480000D02*
X152720000Y-64105000D01*
X148680000Y-65695000D02*
X148680000Y-66320000D01*
X148680000Y-63480000D02*
X148680000Y-64105000D01*
X148680000Y-66320000D02*
X152720000Y-66320000D01*
X148680000Y-63480000D02*
X152720000Y-63480000D01*
X150320000Y-56555000D02*
X150945000Y-56555000D01*
X148105000Y-56555000D02*
X148730000Y-56555000D01*
X150320000Y-60595000D02*
X150945000Y-60595000D01*
X148105000Y-60595000D02*
X148730000Y-60595000D01*
X150945000Y-60595000D02*
X150945000Y-56555000D01*
X148105000Y-60595000D02*
X148105000Y-56555000D01*
X170945000Y-59030000D02*
X171570000Y-59030000D01*
X168730000Y-59030000D02*
X169355000Y-59030000D01*
X170945000Y-63070000D02*
X171570000Y-63070000D01*
X168730000Y-63070000D02*
X169355000Y-63070000D01*
X171570000Y-63070000D02*
X171570000Y-59030000D01*
X168730000Y-63070000D02*
X168730000Y-59030000D01*
X112680000Y-57910000D02*
X94560000Y-57910000D01*
X112680000Y-108950000D02*
X112680000Y-57910000D01*
X94560000Y-108950000D02*
X112680000Y-108950000D01*
X94560000Y-57910000D02*
X94560000Y-108950000D01*
X109680000Y-57970000D02*
X104620000Y-57970000D01*
X109680000Y-108890000D02*
X109680000Y-57970000D01*
X97560000Y-108890000D02*
X109680000Y-108890000D01*
X97560000Y-57970000D02*
X97560000Y-108890000D01*
X102620000Y-57970000D02*
X97560000Y-57970000D01*
X104620000Y-57970000D02*
G75*
G02X102620000Y-57970000I-1000000J0D01*
G01*
X198440000Y-114090000D02*
X208940000Y-114090000D01*
X198440000Y-88450000D02*
X198440000Y-114090000D01*
X208940000Y-88450000D02*
X198440000Y-88450000D01*
X208940000Y-114090000D02*
X208940000Y-88450000D01*
X201440000Y-114030000D02*
X202690000Y-114030000D01*
X201440000Y-88510000D02*
X201440000Y-114030000D01*
X205940000Y-88510000D02*
X201440000Y-88510000D01*
X205940000Y-114030000D02*
X205940000Y-88510000D01*
X204690000Y-114030000D02*
X205940000Y-114030000D01*
X202690000Y-114030000D02*
G75*
G02X204690000Y-114030000I1000000J0D01*
G01*
X196110000Y-75710000D02*
X185610000Y-75710000D01*
X196110000Y-106430000D02*
X196110000Y-75710000D01*
X185610000Y-106430000D02*
X196110000Y-106430000D01*
X185610000Y-75710000D02*
X185610000Y-106430000D01*
X193110000Y-75770000D02*
X191860000Y-75770000D01*
X193110000Y-106370000D02*
X193110000Y-75770000D01*
X188610000Y-106370000D02*
X193110000Y-106370000D01*
X188610000Y-75770000D02*
X188610000Y-106370000D01*
X189860000Y-75770000D02*
X188610000Y-75770000D01*
X191860000Y-75770000D02*
G75*
G02X189860000Y-75770000I-1000000J0D01*
G01*
X195540000Y-127710000D02*
X195540000Y-117210000D01*
X164820000Y-127710000D02*
X195540000Y-127710000D01*
X164820000Y-117210000D02*
X164820000Y-127710000D01*
X195540000Y-117210000D02*
X164820000Y-117210000D01*
X195480000Y-124710000D02*
X195480000Y-123460000D01*
X164880000Y-124710000D02*
X195480000Y-124710000D01*
X164880000Y-120210000D02*
X164880000Y-124710000D01*
X195480000Y-120210000D02*
X164880000Y-120210000D01*
X195480000Y-121460000D02*
X195480000Y-120210000D01*
X195480000Y-123460000D02*
G75*
G02X195480000Y-121460000I0J1000000D01*
G01*
X119320000Y-111540000D02*
X137440000Y-111540000D01*
X119320000Y-75740000D02*
X119320000Y-111540000D01*
X137440000Y-75740000D02*
X119320000Y-75740000D01*
X137440000Y-111540000D02*
X137440000Y-75740000D01*
X122320000Y-111480000D02*
X127380000Y-111480000D01*
X122320000Y-75800000D02*
X122320000Y-111480000D01*
X134440000Y-75800000D02*
X122320000Y-75800000D01*
X134440000Y-111480000D02*
X134440000Y-75800000D01*
X129380000Y-111480000D02*
X134440000Y-111480000D01*
X127380000Y-111480000D02*
G75*
G02X129380000Y-111480000I1000000J0D01*
G01*
X182830000Y-64260000D02*
X164710000Y-64260000D01*
X182830000Y-115300000D02*
X182830000Y-64260000D01*
X164710000Y-115300000D02*
X182830000Y-115300000D01*
X164710000Y-64260000D02*
X164710000Y-115300000D01*
X179830000Y-64320000D02*
X174770000Y-64320000D01*
X179830000Y-115240000D02*
X179830000Y-64320000D01*
X167710000Y-115240000D02*
X179830000Y-115240000D01*
X167710000Y-64320000D02*
X167710000Y-115240000D01*
X172770000Y-64320000D02*
X167710000Y-64320000D01*
X174770000Y-64320000D02*
G75*
G02X172770000Y-64320000I-1000000J0D01*
G01*
X137040000Y-66290000D02*
X147540000Y-66290000D01*
X137040000Y-55890000D02*
X137040000Y-66290000D01*
X147540000Y-55890000D02*
X137040000Y-55890000D01*
X147540000Y-66290000D02*
X147540000Y-55890000D01*
X140040000Y-66230000D02*
X141290000Y-66230000D01*
X140040000Y-55950000D02*
X140040000Y-66230000D01*
X144540000Y-55950000D02*
X140040000Y-55950000D01*
X144540000Y-66230000D02*
X144540000Y-55950000D01*
X143290000Y-66230000D02*
X144540000Y-66230000D01*
X141290000Y-66230000D02*
G75*
G02X143290000Y-66230000I1000000J0D01*
G01*
X211470000Y-74490000D02*
X212800000Y-74490000D01*
X211470000Y-75820000D02*
X211470000Y-74490000D01*
X211470000Y-77090000D02*
X214130000Y-77090000D01*
X214130000Y-77090000D02*
X214130000Y-84770000D01*
X211470000Y-77090000D02*
X211470000Y-84770000D01*
X211470000Y-84770000D02*
X214130000Y-84770000D01*
X85420000Y-108770000D02*
X86750000Y-108770000D01*
X85420000Y-110100000D02*
X85420000Y-108770000D01*
X88020000Y-108770000D02*
X90620000Y-108770000D01*
X88020000Y-111370000D02*
X88020000Y-108770000D01*
X85420000Y-111370000D02*
X88020000Y-111370000D01*
X90620000Y-108770000D02*
X90620000Y-129210000D01*
X85420000Y-111370000D02*
X85420000Y-129210000D01*
X85420000Y-129210000D02*
X90620000Y-129210000D01*
X85420000Y-80820000D02*
X86750000Y-80820000D01*
X85420000Y-82150000D02*
X85420000Y-80820000D01*
X88020000Y-80820000D02*
X90620000Y-80820000D01*
X88020000Y-83420000D02*
X88020000Y-80820000D01*
X85420000Y-83420000D02*
X88020000Y-83420000D01*
X90620000Y-80820000D02*
X90620000Y-101260000D01*
X85420000Y-83420000D02*
X85420000Y-101260000D01*
X85420000Y-101260000D02*
X90620000Y-101260000D01*
X85420000Y-55470000D02*
X86750000Y-55470000D01*
X85420000Y-56800000D02*
X85420000Y-55470000D01*
X88020000Y-55470000D02*
X90620000Y-55470000D01*
X88020000Y-58070000D02*
X88020000Y-55470000D01*
X85420000Y-58070000D02*
X88020000Y-58070000D01*
X90620000Y-55470000D02*
X90620000Y-75910000D01*
X85420000Y-58070000D02*
X85420000Y-75910000D01*
X85420000Y-75910000D02*
X90620000Y-75910000D01*
X163700000Y-112680000D02*
X163700000Y-115220000D01*
X160400000Y-124610000D02*
X160400000Y-122350000D01*
X162680000Y-124610000D02*
X162680000Y-122750000D01*
X139580000Y-124610000D02*
X162680000Y-124610000D01*
X139580000Y-68910000D02*
X139580000Y-124610000D01*
X162680000Y-68910000D02*
X139580000Y-68910000D01*
X162680000Y-117850000D02*
X162680000Y-68910000D01*
X162850000Y-120300000D02*
G75*
G03X162850000Y-120300000I-900000J0D01*
G01*
X164500000Y-120300000D02*
G75*
G03X164500000Y-120300000I-2550000J0D01*
G01*
X187585000Y-107175000D02*
G75*
G03X187585000Y-112225000I0J-2525000D01*
G01*
X193835000Y-107175000D02*
G75*
G02X193835000Y-112225000I0J-2525000D01*
G01*
X193835000Y-107175000D02*
X187585000Y-107175000D01*
X193835000Y-112225000D02*
X187585000Y-112225000D01*
X211470000Y-103740000D02*
X212800000Y-103740000D01*
X211470000Y-105070000D02*
X211470000Y-103740000D01*
X211470000Y-106340000D02*
X214130000Y-106340000D01*
X214130000Y-106340000D02*
X214130000Y-114020000D01*
X211470000Y-106340000D02*
X211470000Y-114020000D01*
X211470000Y-114020000D02*
X214130000Y-114020000D01*
X123996000Y-128835241D02*
X124626000Y-128835241D01*
X124311000Y-129150241D02*
X124311000Y-128520241D01*
X125748000Y-122409000D02*
X126552000Y-122409000D01*
X125517000Y-122449000D02*
X126783000Y-122449000D01*
X125348000Y-122489000D02*
X126952000Y-122489000D01*
X125210000Y-122529000D02*
X127090000Y-122529000D01*
X125091000Y-122569000D02*
X127209000Y-122569000D01*
X124985000Y-122609000D02*
X127315000Y-122609000D01*
X124888000Y-122649000D02*
X127412000Y-122649000D01*
X124800000Y-122689000D02*
X127500000Y-122689000D01*
X124718000Y-122729000D02*
X127582000Y-122729000D01*
X124641000Y-122769000D02*
X127659000Y-122769000D01*
X124569000Y-122809000D02*
X127731000Y-122809000D01*
X124500000Y-122849000D02*
X127800000Y-122849000D01*
X124436000Y-122889000D02*
X127864000Y-122889000D01*
X124374000Y-122929000D02*
X127926000Y-122929000D01*
X124316000Y-122969000D02*
X127984000Y-122969000D01*
X124260000Y-123009000D02*
X128040000Y-123009000D01*
X124206000Y-123049000D02*
X128094000Y-123049000D01*
X124155000Y-123089000D02*
X128145000Y-123089000D01*
X124106000Y-123129000D02*
X128194000Y-123129000D01*
X124058000Y-123169000D02*
X128242000Y-123169000D01*
X124013000Y-123209000D02*
X128287000Y-123209000D01*
X123968000Y-123249000D02*
X128332000Y-123249000D01*
X123926000Y-123289000D02*
X128374000Y-123289000D01*
X123885000Y-123329000D02*
X128415000Y-123329000D01*
X127190000Y-123369000D02*
X128455000Y-123369000D01*
X123845000Y-123369000D02*
X125110000Y-123369000D01*
X127190000Y-123409000D02*
X128493000Y-123409000D01*
X123807000Y-123409000D02*
X125110000Y-123409000D01*
X127190000Y-123449000D02*
X128530000Y-123449000D01*
X123770000Y-123449000D02*
X125110000Y-123449000D01*
X127190000Y-123489000D02*
X128566000Y-123489000D01*
X123734000Y-123489000D02*
X125110000Y-123489000D01*
X127190000Y-123529000D02*
X128600000Y-123529000D01*
X123700000Y-123529000D02*
X125110000Y-123529000D01*
X127190000Y-123569000D02*
X128634000Y-123569000D01*
X123666000Y-123569000D02*
X125110000Y-123569000D01*
X127190000Y-123609000D02*
X128666000Y-123609000D01*
X123634000Y-123609000D02*
X125110000Y-123609000D01*
X127190000Y-123649000D02*
X128698000Y-123649000D01*
X123602000Y-123649000D02*
X125110000Y-123649000D01*
X127190000Y-123689000D02*
X128728000Y-123689000D01*
X123572000Y-123689000D02*
X125110000Y-123689000D01*
X127190000Y-123729000D02*
X128757000Y-123729000D01*
X123543000Y-123729000D02*
X125110000Y-123729000D01*
X127190000Y-123769000D02*
X128786000Y-123769000D01*
X123514000Y-123769000D02*
X125110000Y-123769000D01*
X127190000Y-123809000D02*
X128814000Y-123809000D01*
X123486000Y-123809000D02*
X125110000Y-123809000D01*
X127190000Y-123849000D02*
X128840000Y-123849000D01*
X123460000Y-123849000D02*
X125110000Y-123849000D01*
X127190000Y-123889000D02*
X128866000Y-123889000D01*
X123434000Y-123889000D02*
X125110000Y-123889000D01*
X127190000Y-123929000D02*
X128892000Y-123929000D01*
X123408000Y-123929000D02*
X125110000Y-123929000D01*
X127190000Y-123969000D02*
X128916000Y-123969000D01*
X123384000Y-123969000D02*
X125110000Y-123969000D01*
X127190000Y-124009000D02*
X128940000Y-124009000D01*
X123360000Y-124009000D02*
X125110000Y-124009000D01*
X127190000Y-124049000D02*
X128962000Y-124049000D01*
X123338000Y-124049000D02*
X125110000Y-124049000D01*
X127190000Y-124089000D02*
X128984000Y-124089000D01*
X123316000Y-124089000D02*
X125110000Y-124089000D01*
X127190000Y-124129000D02*
X129006000Y-124129000D01*
X123294000Y-124129000D02*
X125110000Y-124129000D01*
X127190000Y-124169000D02*
X129026000Y-124169000D01*
X123274000Y-124169000D02*
X125110000Y-124169000D01*
X127190000Y-124209000D02*
X129046000Y-124209000D01*
X123254000Y-124209000D02*
X125110000Y-124209000D01*
X127190000Y-124249000D02*
X129066000Y-124249000D01*
X123234000Y-124249000D02*
X125110000Y-124249000D01*
X127190000Y-124289000D02*
X129084000Y-124289000D01*
X123216000Y-124289000D02*
X125110000Y-124289000D01*
X127190000Y-124329000D02*
X129102000Y-124329000D01*
X123198000Y-124329000D02*
X125110000Y-124329000D01*
X127190000Y-124369000D02*
X129120000Y-124369000D01*
X123180000Y-124369000D02*
X125110000Y-124369000D01*
X127190000Y-124409000D02*
X129136000Y-124409000D01*
X123164000Y-124409000D02*
X125110000Y-124409000D01*
X127190000Y-124449000D02*
X129152000Y-124449000D01*
X123148000Y-124449000D02*
X125110000Y-124449000D01*
X127190000Y-124489000D02*
X129168000Y-124489000D01*
X123132000Y-124489000D02*
X125110000Y-124489000D01*
X127190000Y-124529000D02*
X129183000Y-124529000D01*
X123117000Y-124529000D02*
X125110000Y-124529000D01*
X127190000Y-124569000D02*
X129197000Y-124569000D01*
X123103000Y-124569000D02*
X125110000Y-124569000D01*
X127190000Y-124609000D02*
X129211000Y-124609000D01*
X123089000Y-124609000D02*
X125110000Y-124609000D01*
X127190000Y-124649000D02*
X129224000Y-124649000D01*
X123076000Y-124649000D02*
X125110000Y-124649000D01*
X127190000Y-124689000D02*
X129236000Y-124689000D01*
X123064000Y-124689000D02*
X125110000Y-124689000D01*
X127190000Y-124729000D02*
X129248000Y-124729000D01*
X123052000Y-124729000D02*
X125110000Y-124729000D01*
X127190000Y-124769000D02*
X129260000Y-124769000D01*
X123040000Y-124769000D02*
X125110000Y-124769000D01*
X127190000Y-124809000D02*
X129271000Y-124809000D01*
X123029000Y-124809000D02*
X125110000Y-124809000D01*
X127190000Y-124849000D02*
X129281000Y-124849000D01*
X123019000Y-124849000D02*
X125110000Y-124849000D01*
X127190000Y-124889000D02*
X129291000Y-124889000D01*
X123009000Y-124889000D02*
X125110000Y-124889000D01*
X127190000Y-124929000D02*
X129300000Y-124929000D01*
X123000000Y-124929000D02*
X125110000Y-124929000D01*
X127190000Y-124970000D02*
X129309000Y-124970000D01*
X122991000Y-124970000D02*
X125110000Y-124970000D01*
X127190000Y-125010000D02*
X129317000Y-125010000D01*
X122983000Y-125010000D02*
X125110000Y-125010000D01*
X127190000Y-125050000D02*
X129325000Y-125050000D01*
X122975000Y-125050000D02*
X125110000Y-125050000D01*
X127190000Y-125090000D02*
X129332000Y-125090000D01*
X122968000Y-125090000D02*
X125110000Y-125090000D01*
X127190000Y-125130000D02*
X129339000Y-125130000D01*
X122961000Y-125130000D02*
X125110000Y-125130000D01*
X127190000Y-125170000D02*
X129345000Y-125170000D01*
X122955000Y-125170000D02*
X125110000Y-125170000D01*
X127190000Y-125210000D02*
X129351000Y-125210000D01*
X122949000Y-125210000D02*
X125110000Y-125210000D01*
X127190000Y-125250000D02*
X129356000Y-125250000D01*
X122944000Y-125250000D02*
X125110000Y-125250000D01*
X127190000Y-125290000D02*
X129361000Y-125290000D01*
X122939000Y-125290000D02*
X125110000Y-125290000D01*
X127190000Y-125330000D02*
X129365000Y-125330000D01*
X122935000Y-125330000D02*
X125110000Y-125330000D01*
X127190000Y-125370000D02*
X129368000Y-125370000D01*
X122932000Y-125370000D02*
X125110000Y-125370000D01*
X127190000Y-125410000D02*
X129372000Y-125410000D01*
X122928000Y-125410000D02*
X125110000Y-125410000D01*
X122926000Y-125450000D02*
X129374000Y-125450000D01*
X122923000Y-125490000D02*
X129377000Y-125490000D01*
X122922000Y-125530000D02*
X129378000Y-125530000D01*
X122920000Y-125570000D02*
X129380000Y-125570000D01*
X122920000Y-125610000D02*
X129380000Y-125610000D01*
X122920000Y-125650000D02*
X129380000Y-125650000D01*
X129420000Y-125650000D02*
G75*
G03X129420000Y-125650000I-3270000J0D01*
G01*
X208490000Y-68410000D02*
G75*
G03X209240000Y-67660000I0J750000D01*
G01*
X196340000Y-67660000D02*
G75*
G03X197090000Y-68410000I750000J0D01*
G01*
X197090000Y-55510000D02*
G75*
G03X196340000Y-56260000I0J-750000D01*
G01*
X209240000Y-55510000D02*
X197090000Y-55510000D01*
X196340000Y-56260000D02*
X196340000Y-67660000D01*
X197090000Y-68410000D02*
X208490000Y-68410000D01*
X209240000Y-67660000D02*
X209240000Y-55510000D01*
X118841000Y-123630000D02*
X118841000Y-125140000D01*
X115140000Y-123630000D02*
X115140000Y-125140000D01*
X111870000Y-125140000D02*
X122110000Y-125140000D01*
X122110000Y-123630000D02*
X122110000Y-128271000D01*
X111870000Y-123630000D02*
X111870000Y-128271000D01*
X111870000Y-128271000D02*
X122110000Y-128271000D01*
X111870000Y-123630000D02*
X122110000Y-123630000D01*
X181150000Y-60800000D02*
X181150000Y-59300000D01*
X179900000Y-56800000D02*
X175400000Y-56800000D01*
X174150000Y-59300000D02*
X174150000Y-60800000D01*
X175400000Y-63300000D02*
X179900000Y-63300000D01*
X99950000Y-118700000D02*
X102550000Y-118700000D01*
X99950000Y-133400000D02*
X99950000Y-118700000D01*
X109150000Y-118700000D02*
X109150000Y-120600000D01*
X106450000Y-118700000D02*
X109150000Y-118700000D01*
X109150000Y-133400000D02*
X99950000Y-133400000D01*
X109150000Y-124600000D02*
X109150000Y-133400000D01*
X99750000Y-119550000D02*
X99750000Y-118500000D01*
X100800000Y-118500000D02*
X99750000Y-118500000D01*
X112296000Y-121535241D02*
X112926000Y-121535241D01*
X112611000Y-121850241D02*
X112611000Y-121220241D01*
X114048000Y-115109000D02*
X114852000Y-115109000D01*
X113817000Y-115149000D02*
X115083000Y-115149000D01*
X113648000Y-115189000D02*
X115252000Y-115189000D01*
X113510000Y-115229000D02*
X115390000Y-115229000D01*
X113391000Y-115269000D02*
X115509000Y-115269000D01*
X113285000Y-115309000D02*
X115615000Y-115309000D01*
X113188000Y-115349000D02*
X115712000Y-115349000D01*
X113100000Y-115389000D02*
X115800000Y-115389000D01*
X113018000Y-115429000D02*
X115882000Y-115429000D01*
X112941000Y-115469000D02*
X115959000Y-115469000D01*
X112869000Y-115509000D02*
X116031000Y-115509000D01*
X112800000Y-115549000D02*
X116100000Y-115549000D01*
X112736000Y-115589000D02*
X116164000Y-115589000D01*
X112674000Y-115629000D02*
X116226000Y-115629000D01*
X112616000Y-115669000D02*
X116284000Y-115669000D01*
X112560000Y-115709000D02*
X116340000Y-115709000D01*
X112506000Y-115749000D02*
X116394000Y-115749000D01*
X112455000Y-115789000D02*
X116445000Y-115789000D01*
X112406000Y-115829000D02*
X116494000Y-115829000D01*
X112358000Y-115869000D02*
X116542000Y-115869000D01*
X112313000Y-115909000D02*
X116587000Y-115909000D01*
X112268000Y-115949000D02*
X116632000Y-115949000D01*
X112226000Y-115989000D02*
X116674000Y-115989000D01*
X112185000Y-116029000D02*
X116715000Y-116029000D01*
X115490000Y-116069000D02*
X116755000Y-116069000D01*
X112145000Y-116069000D02*
X113410000Y-116069000D01*
X115490000Y-116109000D02*
X116793000Y-116109000D01*
X112107000Y-116109000D02*
X113410000Y-116109000D01*
X115490000Y-116149000D02*
X116830000Y-116149000D01*
X112070000Y-116149000D02*
X113410000Y-116149000D01*
X115490000Y-116189000D02*
X116866000Y-116189000D01*
X112034000Y-116189000D02*
X113410000Y-116189000D01*
X115490000Y-116229000D02*
X116900000Y-116229000D01*
X112000000Y-116229000D02*
X113410000Y-116229000D01*
X115490000Y-116269000D02*
X116934000Y-116269000D01*
X111966000Y-116269000D02*
X113410000Y-116269000D01*
X115490000Y-116309000D02*
X116966000Y-116309000D01*
X111934000Y-116309000D02*
X113410000Y-116309000D01*
X115490000Y-116349000D02*
X116998000Y-116349000D01*
X111902000Y-116349000D02*
X113410000Y-116349000D01*
X115490000Y-116389000D02*
X117028000Y-116389000D01*
X111872000Y-116389000D02*
X113410000Y-116389000D01*
X115490000Y-116429000D02*
X117057000Y-116429000D01*
X111843000Y-116429000D02*
X113410000Y-116429000D01*
X115490000Y-116469000D02*
X117086000Y-116469000D01*
X111814000Y-116469000D02*
X113410000Y-116469000D01*
X115490000Y-116509000D02*
X117114000Y-116509000D01*
X111786000Y-116509000D02*
X113410000Y-116509000D01*
X115490000Y-116549000D02*
X117140000Y-116549000D01*
X111760000Y-116549000D02*
X113410000Y-116549000D01*
X115490000Y-116589000D02*
X117166000Y-116589000D01*
X111734000Y-116589000D02*
X113410000Y-116589000D01*
X115490000Y-116629000D02*
X117192000Y-116629000D01*
X111708000Y-116629000D02*
X113410000Y-116629000D01*
X115490000Y-116669000D02*
X117216000Y-116669000D01*
X111684000Y-116669000D02*
X113410000Y-116669000D01*
X115490000Y-116709000D02*
X117240000Y-116709000D01*
X111660000Y-116709000D02*
X113410000Y-116709000D01*
X115490000Y-116749000D02*
X117262000Y-116749000D01*
X111638000Y-116749000D02*
X113410000Y-116749000D01*
X115490000Y-116789000D02*
X117284000Y-116789000D01*
X111616000Y-116789000D02*
X113410000Y-116789000D01*
X115490000Y-116829000D02*
X117306000Y-116829000D01*
X111594000Y-116829000D02*
X113410000Y-116829000D01*
X115490000Y-116869000D02*
X117326000Y-116869000D01*
X111574000Y-116869000D02*
X113410000Y-116869000D01*
X115490000Y-116909000D02*
X117346000Y-116909000D01*
X111554000Y-116909000D02*
X113410000Y-116909000D01*
X115490000Y-116949000D02*
X117366000Y-116949000D01*
X111534000Y-116949000D02*
X113410000Y-116949000D01*
X115490000Y-116989000D02*
X117384000Y-116989000D01*
X111516000Y-116989000D02*
X113410000Y-116989000D01*
X115490000Y-117029000D02*
X117402000Y-117029000D01*
X111498000Y-117029000D02*
X113410000Y-117029000D01*
X115490000Y-117069000D02*
X117420000Y-117069000D01*
X111480000Y-117069000D02*
X113410000Y-117069000D01*
X115490000Y-117109000D02*
X117436000Y-117109000D01*
X111464000Y-117109000D02*
X113410000Y-117109000D01*
X115490000Y-117149000D02*
X117452000Y-117149000D01*
X111448000Y-117149000D02*
X113410000Y-117149000D01*
X115490000Y-117189000D02*
X117468000Y-117189000D01*
X111432000Y-117189000D02*
X113410000Y-117189000D01*
X115490000Y-117229000D02*
X117483000Y-117229000D01*
X111417000Y-117229000D02*
X113410000Y-117229000D01*
X115490000Y-117269000D02*
X117497000Y-117269000D01*
X111403000Y-117269000D02*
X113410000Y-117269000D01*
X115490000Y-117309000D02*
X117511000Y-117309000D01*
X111389000Y-117309000D02*
X113410000Y-117309000D01*
X115490000Y-117349000D02*
X117524000Y-117349000D01*
X111376000Y-117349000D02*
X113410000Y-117349000D01*
X115490000Y-117389000D02*
X117536000Y-117389000D01*
X111364000Y-117389000D02*
X113410000Y-117389000D01*
X115490000Y-117429000D02*
X117548000Y-117429000D01*
X111352000Y-117429000D02*
X113410000Y-117429000D01*
X115490000Y-117469000D02*
X117560000Y-117469000D01*
X111340000Y-117469000D02*
X113410000Y-117469000D01*
X115490000Y-117509000D02*
X117571000Y-117509000D01*
X111329000Y-117509000D02*
X113410000Y-117509000D01*
X115490000Y-117549000D02*
X117581000Y-117549000D01*
X111319000Y-117549000D02*
X113410000Y-117549000D01*
X115490000Y-117589000D02*
X117591000Y-117589000D01*
X111309000Y-117589000D02*
X113410000Y-117589000D01*
X115490000Y-117629000D02*
X117600000Y-117629000D01*
X111300000Y-117629000D02*
X113410000Y-117629000D01*
X115490000Y-117670000D02*
X117609000Y-117670000D01*
X111291000Y-117670000D02*
X113410000Y-117670000D01*
X115490000Y-117710000D02*
X117617000Y-117710000D01*
X111283000Y-117710000D02*
X113410000Y-117710000D01*
X115490000Y-117750000D02*
X117625000Y-117750000D01*
X111275000Y-117750000D02*
X113410000Y-117750000D01*
X115490000Y-117790000D02*
X117632000Y-117790000D01*
X111268000Y-117790000D02*
X113410000Y-117790000D01*
X115490000Y-117830000D02*
X117639000Y-117830000D01*
X111261000Y-117830000D02*
X113410000Y-117830000D01*
X115490000Y-117870000D02*
X117645000Y-117870000D01*
X111255000Y-117870000D02*
X113410000Y-117870000D01*
X115490000Y-117910000D02*
X117651000Y-117910000D01*
X111249000Y-117910000D02*
X113410000Y-117910000D01*
X115490000Y-117950000D02*
X117656000Y-117950000D01*
X111244000Y-117950000D02*
X113410000Y-117950000D01*
X115490000Y-117990000D02*
X117661000Y-117990000D01*
X111239000Y-117990000D02*
X113410000Y-117990000D01*
X115490000Y-118030000D02*
X117665000Y-118030000D01*
X111235000Y-118030000D02*
X113410000Y-118030000D01*
X115490000Y-118070000D02*
X117668000Y-118070000D01*
X111232000Y-118070000D02*
X113410000Y-118070000D01*
X115490000Y-118110000D02*
X117672000Y-118110000D01*
X111228000Y-118110000D02*
X113410000Y-118110000D01*
X111226000Y-118150000D02*
X117674000Y-118150000D01*
X111223000Y-118190000D02*
X117677000Y-118190000D01*
X111222000Y-118230000D02*
X117678000Y-118230000D01*
X111220000Y-118270000D02*
X117680000Y-118270000D01*
X111220000Y-118310000D02*
X117680000Y-118310000D01*
X111220000Y-118350000D02*
X117680000Y-118350000D01*
X117720000Y-118350000D02*
G75*
G03X117720000Y-118350000I-3270000J0D01*
G01*
D10*
X186259523Y-58652380D02*
X185926190Y-58176190D01*
X185688095Y-58652380D02*
X185688095Y-57652380D01*
X186069047Y-57652380D01*
X186164285Y-57700000D01*
X186211904Y-57747619D01*
X186259523Y-57842857D01*
X186259523Y-57985714D01*
X186211904Y-58080952D01*
X186164285Y-58128571D01*
X186069047Y-58176190D01*
X185688095Y-58176190D01*
X186688095Y-58652380D02*
X186688095Y-57652380D01*
X187259523Y-58652380D01*
X187259523Y-57652380D01*
X188259523Y-58652380D02*
X187688095Y-58652380D01*
X187973809Y-58652380D02*
X187973809Y-57652380D01*
X187878571Y-57795238D01*
X187783333Y-57890476D01*
X187688095Y-57938095D01*
X132916666Y-123852380D02*
X132916666Y-124566666D01*
X132869047Y-124709523D01*
X132773809Y-124804761D01*
X132630952Y-124852380D01*
X132535714Y-124852380D01*
X133297619Y-123852380D02*
X133964285Y-123852380D01*
X133535714Y-124852380D01*
X136840476Y-127352380D02*
X136840476Y-126352380D01*
X137221428Y-126352380D01*
X137316666Y-126400000D01*
X137364285Y-126447619D01*
X137411904Y-126542857D01*
X137411904Y-126685714D01*
X137364285Y-126780952D01*
X137316666Y-126828571D01*
X137221428Y-126876190D01*
X136840476Y-126876190D01*
X138030952Y-126352380D02*
X138221428Y-126352380D01*
X138316666Y-126400000D01*
X138411904Y-126495238D01*
X138459523Y-126685714D01*
X138459523Y-127019047D01*
X138411904Y-127209523D01*
X138316666Y-127304761D01*
X138221428Y-127352380D01*
X138030952Y-127352380D01*
X137935714Y-127304761D01*
X137840476Y-127209523D01*
X137792857Y-127019047D01*
X137792857Y-126685714D01*
X137840476Y-126495238D01*
X137935714Y-126400000D01*
X138030952Y-126352380D01*
X138792857Y-126352380D02*
X139030952Y-127352380D01*
X139221428Y-126638095D01*
X139411904Y-127352380D01*
X139650000Y-126352380D01*
X140030952Y-126828571D02*
X140364285Y-126828571D01*
X140507142Y-127352380D02*
X140030952Y-127352380D01*
X140030952Y-126352380D01*
X140507142Y-126352380D01*
X141507142Y-127352380D02*
X141173809Y-126876190D01*
X140935714Y-127352380D02*
X140935714Y-126352380D01*
X141316666Y-126352380D01*
X141411904Y-126400000D01*
X141459523Y-126447619D01*
X141507142Y-126542857D01*
X141507142Y-126685714D01*
X141459523Y-126780952D01*
X141411904Y-126828571D01*
X141316666Y-126876190D01*
X140935714Y-126876190D01*
X160883333Y-56232380D02*
X160550000Y-55756190D01*
X160311904Y-56232380D02*
X160311904Y-55232380D01*
X160692857Y-55232380D01*
X160788095Y-55280000D01*
X160835714Y-55327619D01*
X160883333Y-55422857D01*
X160883333Y-55565714D01*
X160835714Y-55660952D01*
X160788095Y-55708571D01*
X160692857Y-55756190D01*
X160311904Y-55756190D01*
X161835714Y-56232380D02*
X161264285Y-56232380D01*
X161550000Y-56232380D02*
X161550000Y-55232380D01*
X161454761Y-55375238D01*
X161359523Y-55470476D01*
X161264285Y-55518095D01*
X200557142Y-119107142D02*
X200509523Y-119154761D01*
X200366666Y-119202380D01*
X200271428Y-119202380D01*
X200128571Y-119154761D01*
X200033333Y-119059523D01*
X199985714Y-118964285D01*
X199938095Y-118773809D01*
X199938095Y-118630952D01*
X199985714Y-118440476D01*
X200033333Y-118345238D01*
X200128571Y-118250000D01*
X200271428Y-118202380D01*
X200366666Y-118202380D01*
X200509523Y-118250000D01*
X200557142Y-118297619D01*
X201509523Y-119202380D02*
X200938095Y-119202380D01*
X201223809Y-119202380D02*
X201223809Y-118202380D01*
X201128571Y-118345238D01*
X201033333Y-118440476D01*
X200938095Y-118488095D01*
X201842857Y-118202380D02*
X202509523Y-118202380D01*
X202080952Y-119202380D01*
X192657142Y-71457142D02*
X192609523Y-71504761D01*
X192466666Y-71552380D01*
X192371428Y-71552380D01*
X192228571Y-71504761D01*
X192133333Y-71409523D01*
X192085714Y-71314285D01*
X192038095Y-71123809D01*
X192038095Y-70980952D01*
X192085714Y-70790476D01*
X192133333Y-70695238D01*
X192228571Y-70600000D01*
X192371428Y-70552380D01*
X192466666Y-70552380D01*
X192609523Y-70600000D01*
X192657142Y-70647619D01*
X193609523Y-71552380D02*
X193038095Y-71552380D01*
X193323809Y-71552380D02*
X193323809Y-70552380D01*
X193228571Y-70695238D01*
X193133333Y-70790476D01*
X193038095Y-70838095D01*
X194466666Y-70552380D02*
X194276190Y-70552380D01*
X194180952Y-70600000D01*
X194133333Y-70647619D01*
X194038095Y-70790476D01*
X193990476Y-70980952D01*
X193990476Y-71361904D01*
X194038095Y-71457142D01*
X194085714Y-71504761D01*
X194180952Y-71552380D01*
X194371428Y-71552380D01*
X194466666Y-71504761D01*
X194514285Y-71457142D01*
X194561904Y-71361904D01*
X194561904Y-71123809D01*
X194514285Y-71028571D01*
X194466666Y-70980952D01*
X194371428Y-70933333D01*
X194180952Y-70933333D01*
X194085714Y-70980952D01*
X194038095Y-71028571D01*
X193990476Y-71123809D01*
X114707142Y-99607142D02*
X114659523Y-99654761D01*
X114516666Y-99702380D01*
X114421428Y-99702380D01*
X114278571Y-99654761D01*
X114183333Y-99559523D01*
X114135714Y-99464285D01*
X114088095Y-99273809D01*
X114088095Y-99130952D01*
X114135714Y-98940476D01*
X114183333Y-98845238D01*
X114278571Y-98750000D01*
X114421428Y-98702380D01*
X114516666Y-98702380D01*
X114659523Y-98750000D01*
X114707142Y-98797619D01*
X115659523Y-99702380D02*
X115088095Y-99702380D01*
X115373809Y-99702380D02*
X115373809Y-98702380D01*
X115278571Y-98845238D01*
X115183333Y-98940476D01*
X115088095Y-98988095D01*
X116564285Y-98702380D02*
X116088095Y-98702380D01*
X116040476Y-99178571D01*
X116088095Y-99130952D01*
X116183333Y-99083333D01*
X116421428Y-99083333D01*
X116516666Y-99130952D01*
X116564285Y-99178571D01*
X116611904Y-99273809D01*
X116611904Y-99511904D01*
X116564285Y-99607142D01*
X116516666Y-99654761D01*
X116421428Y-99702380D01*
X116183333Y-99702380D01*
X116088095Y-99654761D01*
X116040476Y-99607142D01*
X186357142Y-116757142D02*
X186309523Y-116804761D01*
X186166666Y-116852380D01*
X186071428Y-116852380D01*
X185928571Y-116804761D01*
X185833333Y-116709523D01*
X185785714Y-116614285D01*
X185738095Y-116423809D01*
X185738095Y-116280952D01*
X185785714Y-116090476D01*
X185833333Y-115995238D01*
X185928571Y-115900000D01*
X186071428Y-115852380D01*
X186166666Y-115852380D01*
X186309523Y-115900000D01*
X186357142Y-115947619D01*
X187309523Y-116852380D02*
X186738095Y-116852380D01*
X187023809Y-116852380D02*
X187023809Y-115852380D01*
X186928571Y-115995238D01*
X186833333Y-116090476D01*
X186738095Y-116138095D01*
X188166666Y-116185714D02*
X188166666Y-116852380D01*
X187928571Y-115804761D02*
X187690476Y-116519047D01*
X188309523Y-116519047D01*
X194857142Y-116757142D02*
X194809523Y-116804761D01*
X194666666Y-116852380D01*
X194571428Y-116852380D01*
X194428571Y-116804761D01*
X194333333Y-116709523D01*
X194285714Y-116614285D01*
X194238095Y-116423809D01*
X194238095Y-116280952D01*
X194285714Y-116090476D01*
X194333333Y-115995238D01*
X194428571Y-115900000D01*
X194571428Y-115852380D01*
X194666666Y-115852380D01*
X194809523Y-115900000D01*
X194857142Y-115947619D01*
X195809523Y-116852380D02*
X195238095Y-116852380D01*
X195523809Y-116852380D02*
X195523809Y-115852380D01*
X195428571Y-115995238D01*
X195333333Y-116090476D01*
X195238095Y-116138095D01*
X196142857Y-115852380D02*
X196761904Y-115852380D01*
X196428571Y-116233333D01*
X196571428Y-116233333D01*
X196666666Y-116280952D01*
X196714285Y-116328571D01*
X196761904Y-116423809D01*
X196761904Y-116661904D01*
X196714285Y-116757142D01*
X196666666Y-116804761D01*
X196571428Y-116852380D01*
X196285714Y-116852380D01*
X196190476Y-116804761D01*
X196142857Y-116757142D01*
X160857142Y-64307142D02*
X160809523Y-64354761D01*
X160666666Y-64402380D01*
X160571428Y-64402380D01*
X160428571Y-64354761D01*
X160333333Y-64259523D01*
X160285714Y-64164285D01*
X160238095Y-63973809D01*
X160238095Y-63830952D01*
X160285714Y-63640476D01*
X160333333Y-63545238D01*
X160428571Y-63450000D01*
X160571428Y-63402380D01*
X160666666Y-63402380D01*
X160809523Y-63450000D01*
X160857142Y-63497619D01*
X161809523Y-64402380D02*
X161238095Y-64402380D01*
X161523809Y-64402380D02*
X161523809Y-63402380D01*
X161428571Y-63545238D01*
X161333333Y-63640476D01*
X161238095Y-63688095D01*
X162190476Y-63497619D02*
X162238095Y-63450000D01*
X162333333Y-63402380D01*
X162571428Y-63402380D01*
X162666666Y-63450000D01*
X162714285Y-63497619D01*
X162761904Y-63592857D01*
X162761904Y-63688095D01*
X162714285Y-63830952D01*
X162142857Y-64402380D01*
X162761904Y-64402380D01*
X211307142Y-62957142D02*
X211259523Y-63004761D01*
X211116666Y-63052380D01*
X211021428Y-63052380D01*
X210878571Y-63004761D01*
X210783333Y-62909523D01*
X210735714Y-62814285D01*
X210688095Y-62623809D01*
X210688095Y-62480952D01*
X210735714Y-62290476D01*
X210783333Y-62195238D01*
X210878571Y-62100000D01*
X211021428Y-62052380D01*
X211116666Y-62052380D01*
X211259523Y-62100000D01*
X211307142Y-62147619D01*
X212259523Y-63052380D02*
X211688095Y-63052380D01*
X211973809Y-63052380D02*
X211973809Y-62052380D01*
X211878571Y-62195238D01*
X211783333Y-62290476D01*
X211688095Y-62338095D01*
X213211904Y-63052380D02*
X212640476Y-63052380D01*
X212926190Y-63052380D02*
X212926190Y-62052380D01*
X212830952Y-62195238D01*
X212735714Y-62290476D01*
X212640476Y-62338095D01*
X134857142Y-121557142D02*
X134809523Y-121604761D01*
X134666666Y-121652380D01*
X134571428Y-121652380D01*
X134428571Y-121604761D01*
X134333333Y-121509523D01*
X134285714Y-121414285D01*
X134238095Y-121223809D01*
X134238095Y-121080952D01*
X134285714Y-120890476D01*
X134333333Y-120795238D01*
X134428571Y-120700000D01*
X134571428Y-120652380D01*
X134666666Y-120652380D01*
X134809523Y-120700000D01*
X134857142Y-120747619D01*
X135809523Y-121652380D02*
X135238095Y-121652380D01*
X135523809Y-121652380D02*
X135523809Y-120652380D01*
X135428571Y-120795238D01*
X135333333Y-120890476D01*
X135238095Y-120938095D01*
X136428571Y-120652380D02*
X136523809Y-120652380D01*
X136619047Y-120700000D01*
X136666666Y-120747619D01*
X136714285Y-120842857D01*
X136761904Y-121033333D01*
X136761904Y-121271428D01*
X136714285Y-121461904D01*
X136666666Y-121557142D01*
X136619047Y-121604761D01*
X136523809Y-121652380D01*
X136428571Y-121652380D01*
X136333333Y-121604761D01*
X136285714Y-121557142D01*
X136238095Y-121461904D01*
X136190476Y-121271428D01*
X136190476Y-121033333D01*
X136238095Y-120842857D01*
X136285714Y-120747619D01*
X136333333Y-120700000D01*
X136428571Y-120652380D01*
X134133333Y-58557142D02*
X134085714Y-58604761D01*
X133942857Y-58652380D01*
X133847619Y-58652380D01*
X133704761Y-58604761D01*
X133609523Y-58509523D01*
X133561904Y-58414285D01*
X133514285Y-58223809D01*
X133514285Y-58080952D01*
X133561904Y-57890476D01*
X133609523Y-57795238D01*
X133704761Y-57700000D01*
X133847619Y-57652380D01*
X133942857Y-57652380D01*
X134085714Y-57700000D01*
X134133333Y-57747619D01*
X134609523Y-58652380D02*
X134800000Y-58652380D01*
X134895238Y-58604761D01*
X134942857Y-58557142D01*
X135038095Y-58414285D01*
X135085714Y-58223809D01*
X135085714Y-57842857D01*
X135038095Y-57747619D01*
X134990476Y-57700000D01*
X134895238Y-57652380D01*
X134704761Y-57652380D01*
X134609523Y-57700000D01*
X134561904Y-57747619D01*
X134514285Y-57842857D01*
X134514285Y-58080952D01*
X134561904Y-58176190D01*
X134609523Y-58223809D01*
X134704761Y-58271428D01*
X134895238Y-58271428D01*
X134990476Y-58223809D01*
X135038095Y-58176190D01*
X135085714Y-58080952D01*
X197933333Y-128457142D02*
X197885714Y-128504761D01*
X197742857Y-128552380D01*
X197647619Y-128552380D01*
X197504761Y-128504761D01*
X197409523Y-128409523D01*
X197361904Y-128314285D01*
X197314285Y-128123809D01*
X197314285Y-127980952D01*
X197361904Y-127790476D01*
X197409523Y-127695238D01*
X197504761Y-127600000D01*
X197647619Y-127552380D01*
X197742857Y-127552380D01*
X197885714Y-127600000D01*
X197933333Y-127647619D01*
X198504761Y-127980952D02*
X198409523Y-127933333D01*
X198361904Y-127885714D01*
X198314285Y-127790476D01*
X198314285Y-127742857D01*
X198361904Y-127647619D01*
X198409523Y-127600000D01*
X198504761Y-127552380D01*
X198695238Y-127552380D01*
X198790476Y-127600000D01*
X198838095Y-127647619D01*
X198885714Y-127742857D01*
X198885714Y-127790476D01*
X198838095Y-127885714D01*
X198790476Y-127933333D01*
X198695238Y-127980952D01*
X198504761Y-127980952D01*
X198409523Y-128028571D01*
X198361904Y-128076190D01*
X198314285Y-128171428D01*
X198314285Y-128361904D01*
X198361904Y-128457142D01*
X198409523Y-128504761D01*
X198504761Y-128552380D01*
X198695238Y-128552380D01*
X198790476Y-128504761D01*
X198838095Y-128457142D01*
X198885714Y-128361904D01*
X198885714Y-128171428D01*
X198838095Y-128076190D01*
X198790476Y-128028571D01*
X198695238Y-127980952D01*
X115133333Y-112457142D02*
X115085714Y-112504761D01*
X114942857Y-112552380D01*
X114847619Y-112552380D01*
X114704761Y-112504761D01*
X114609523Y-112409523D01*
X114561904Y-112314285D01*
X114514285Y-112123809D01*
X114514285Y-111980952D01*
X114561904Y-111790476D01*
X114609523Y-111695238D01*
X114704761Y-111600000D01*
X114847619Y-111552380D01*
X114942857Y-111552380D01*
X115085714Y-111600000D01*
X115133333Y-111647619D01*
X115466666Y-111552380D02*
X116133333Y-111552380D01*
X115704761Y-112552380D01*
X96933333Y-124457142D02*
X96885714Y-124504761D01*
X96742857Y-124552380D01*
X96647619Y-124552380D01*
X96504761Y-124504761D01*
X96409523Y-124409523D01*
X96361904Y-124314285D01*
X96314285Y-124123809D01*
X96314285Y-123980952D01*
X96361904Y-123790476D01*
X96409523Y-123695238D01*
X96504761Y-123600000D01*
X96647619Y-123552380D01*
X96742857Y-123552380D01*
X96885714Y-123600000D01*
X96933333Y-123647619D01*
X97838095Y-123552380D02*
X97361904Y-123552380D01*
X97314285Y-124028571D01*
X97361904Y-123980952D01*
X97457142Y-123933333D01*
X97695238Y-123933333D01*
X97790476Y-123980952D01*
X97838095Y-124028571D01*
X97885714Y-124123809D01*
X97885714Y-124361904D01*
X97838095Y-124457142D01*
X97790476Y-124504761D01*
X97695238Y-124552380D01*
X97457142Y-124552380D01*
X97361904Y-124504761D01*
X97314285Y-124457142D01*
X153933333Y-65257142D02*
X153885714Y-65304761D01*
X153742857Y-65352380D01*
X153647619Y-65352380D01*
X153504761Y-65304761D01*
X153409523Y-65209523D01*
X153361904Y-65114285D01*
X153314285Y-64923809D01*
X153314285Y-64780952D01*
X153361904Y-64590476D01*
X153409523Y-64495238D01*
X153504761Y-64400000D01*
X153647619Y-64352380D01*
X153742857Y-64352380D01*
X153885714Y-64400000D01*
X153933333Y-64447619D01*
X154266666Y-64352380D02*
X154885714Y-64352380D01*
X154552380Y-64733333D01*
X154695238Y-64733333D01*
X154790476Y-64780952D01*
X154838095Y-64828571D01*
X154885714Y-64923809D01*
X154885714Y-65161904D01*
X154838095Y-65257142D01*
X154790476Y-65304761D01*
X154695238Y-65352380D01*
X154409523Y-65352380D01*
X154314285Y-65304761D01*
X154266666Y-65257142D01*
X149308333Y-56082142D02*
X149260714Y-56129761D01*
X149117857Y-56177380D01*
X149022619Y-56177380D01*
X148879761Y-56129761D01*
X148784523Y-56034523D01*
X148736904Y-55939285D01*
X148689285Y-55748809D01*
X148689285Y-55605952D01*
X148736904Y-55415476D01*
X148784523Y-55320238D01*
X148879761Y-55225000D01*
X149022619Y-55177380D01*
X149117857Y-55177380D01*
X149260714Y-55225000D01*
X149308333Y-55272619D01*
X149689285Y-55272619D02*
X149736904Y-55225000D01*
X149832142Y-55177380D01*
X150070238Y-55177380D01*
X150165476Y-55225000D01*
X150213095Y-55272619D01*
X150260714Y-55367857D01*
X150260714Y-55463095D01*
X150213095Y-55605952D01*
X149641666Y-56177380D01*
X150260714Y-56177380D01*
X169983333Y-58457142D02*
X169935714Y-58504761D01*
X169792857Y-58552380D01*
X169697619Y-58552380D01*
X169554761Y-58504761D01*
X169459523Y-58409523D01*
X169411904Y-58314285D01*
X169364285Y-58123809D01*
X169364285Y-57980952D01*
X169411904Y-57790476D01*
X169459523Y-57695238D01*
X169554761Y-57600000D01*
X169697619Y-57552380D01*
X169792857Y-57552380D01*
X169935714Y-57600000D01*
X169983333Y-57647619D01*
X170935714Y-58552380D02*
X170364285Y-58552380D01*
X170650000Y-58552380D02*
X170650000Y-57552380D01*
X170554761Y-57695238D01*
X170459523Y-57790476D01*
X170364285Y-57838095D01*
X102858095Y-109452380D02*
X102858095Y-110261904D01*
X102905714Y-110357142D01*
X102953333Y-110404761D01*
X103048571Y-110452380D01*
X103239047Y-110452380D01*
X103334285Y-110404761D01*
X103381904Y-110357142D01*
X103429523Y-110261904D01*
X103429523Y-109452380D01*
X103953333Y-110452380D02*
X104143809Y-110452380D01*
X104239047Y-110404761D01*
X104286666Y-110357142D01*
X104381904Y-110214285D01*
X104429523Y-110023809D01*
X104429523Y-109642857D01*
X104381904Y-109547619D01*
X104334285Y-109500000D01*
X104239047Y-109452380D01*
X104048571Y-109452380D01*
X103953333Y-109500000D01*
X103905714Y-109547619D01*
X103858095Y-109642857D01*
X103858095Y-109880952D01*
X103905714Y-109976190D01*
X103953333Y-110023809D01*
X104048571Y-110071428D01*
X104239047Y-110071428D01*
X104334285Y-110023809D01*
X104381904Y-109976190D01*
X104429523Y-109880952D01*
X206738095Y-114552380D02*
X206738095Y-115361904D01*
X206785714Y-115457142D01*
X206833333Y-115504761D01*
X206928571Y-115552380D01*
X207119047Y-115552380D01*
X207214285Y-115504761D01*
X207261904Y-115457142D01*
X207309523Y-115361904D01*
X207309523Y-114552380D01*
X207928571Y-114980952D02*
X207833333Y-114933333D01*
X207785714Y-114885714D01*
X207738095Y-114790476D01*
X207738095Y-114742857D01*
X207785714Y-114647619D01*
X207833333Y-114600000D01*
X207928571Y-114552380D01*
X208119047Y-114552380D01*
X208214285Y-114600000D01*
X208261904Y-114647619D01*
X208309523Y-114742857D01*
X208309523Y-114790476D01*
X208261904Y-114885714D01*
X208214285Y-114933333D01*
X208119047Y-114980952D01*
X207928571Y-114980952D01*
X207833333Y-115028571D01*
X207785714Y-115076190D01*
X207738095Y-115171428D01*
X207738095Y-115361904D01*
X207785714Y-115457142D01*
X207833333Y-115504761D01*
X207928571Y-115552380D01*
X208119047Y-115552380D01*
X208214285Y-115504761D01*
X208261904Y-115457142D01*
X208309523Y-115361904D01*
X208309523Y-115171428D01*
X208261904Y-115076190D01*
X208214285Y-115028571D01*
X208119047Y-114980952D01*
X196638095Y-76452380D02*
X196638095Y-77261904D01*
X196685714Y-77357142D01*
X196733333Y-77404761D01*
X196828571Y-77452380D01*
X197019047Y-77452380D01*
X197114285Y-77404761D01*
X197161904Y-77357142D01*
X197209523Y-77261904D01*
X197209523Y-76452380D01*
X197590476Y-76452380D02*
X198257142Y-76452380D01*
X197828571Y-77452380D01*
X179388095Y-128202380D02*
X179388095Y-129011904D01*
X179435714Y-129107142D01*
X179483333Y-129154761D01*
X179578571Y-129202380D01*
X179769047Y-129202380D01*
X179864285Y-129154761D01*
X179911904Y-129107142D01*
X179959523Y-129011904D01*
X179959523Y-128202380D01*
X180911904Y-128202380D02*
X180435714Y-128202380D01*
X180388095Y-128678571D01*
X180435714Y-128630952D01*
X180530952Y-128583333D01*
X180769047Y-128583333D01*
X180864285Y-128630952D01*
X180911904Y-128678571D01*
X180959523Y-128773809D01*
X180959523Y-129011904D01*
X180911904Y-129107142D01*
X180864285Y-129154761D01*
X180769047Y-129202380D01*
X180530952Y-129202380D01*
X180435714Y-129154761D01*
X180388095Y-129107142D01*
X127618095Y-111932380D02*
X127618095Y-112741904D01*
X127665714Y-112837142D01*
X127713333Y-112884761D01*
X127808571Y-112932380D01*
X127999047Y-112932380D01*
X128094285Y-112884761D01*
X128141904Y-112837142D01*
X128189523Y-112741904D01*
X128189523Y-111932380D01*
X128570476Y-111932380D02*
X129189523Y-111932380D01*
X128856190Y-112313333D01*
X128999047Y-112313333D01*
X129094285Y-112360952D01*
X129141904Y-112408571D01*
X129189523Y-112503809D01*
X129189523Y-112741904D01*
X129141904Y-112837142D01*
X129094285Y-112884761D01*
X128999047Y-112932380D01*
X128713333Y-112932380D01*
X128618095Y-112884761D01*
X128570476Y-112837142D01*
X165463095Y-62852380D02*
X165463095Y-63661904D01*
X165510714Y-63757142D01*
X165558333Y-63804761D01*
X165653571Y-63852380D01*
X165844047Y-63852380D01*
X165939285Y-63804761D01*
X165986904Y-63757142D01*
X166034523Y-63661904D01*
X166034523Y-62852380D01*
X166463095Y-62947619D02*
X166510714Y-62900000D01*
X166605952Y-62852380D01*
X166844047Y-62852380D01*
X166939285Y-62900000D01*
X166986904Y-62947619D01*
X167034523Y-63042857D01*
X167034523Y-63138095D01*
X166986904Y-63280952D01*
X166415476Y-63852380D01*
X167034523Y-63852380D01*
X141528095Y-66682380D02*
X141528095Y-67491904D01*
X141575714Y-67587142D01*
X141623333Y-67634761D01*
X141718571Y-67682380D01*
X141909047Y-67682380D01*
X142004285Y-67634761D01*
X142051904Y-67587142D01*
X142099523Y-67491904D01*
X142099523Y-66682380D01*
X143099523Y-67682380D02*
X142528095Y-67682380D01*
X142813809Y-67682380D02*
X142813809Y-66682380D01*
X142718571Y-66825238D01*
X142623333Y-66920476D01*
X142528095Y-66968095D01*
X212466666Y-72942380D02*
X212466666Y-73656666D01*
X212419047Y-73799523D01*
X212323809Y-73894761D01*
X212180952Y-73942380D01*
X212085714Y-73942380D01*
X212895238Y-73037619D02*
X212942857Y-72990000D01*
X213038095Y-72942380D01*
X213276190Y-72942380D01*
X213371428Y-72990000D01*
X213419047Y-73037619D01*
X213466666Y-73132857D01*
X213466666Y-73228095D01*
X213419047Y-73370952D01*
X212847619Y-73942380D01*
X213466666Y-73942380D01*
X211204761Y-85222380D02*
X211204761Y-86031904D01*
X211252380Y-86127142D01*
X211300000Y-86174761D01*
X211395238Y-86222380D01*
X211585714Y-86222380D01*
X211680952Y-86174761D01*
X211728571Y-86127142D01*
X211776190Y-86031904D01*
X211776190Y-85222380D01*
X212204761Y-85936666D02*
X212680952Y-85936666D01*
X212109523Y-86222380D02*
X212442857Y-85222380D01*
X212776190Y-86222380D01*
X213680952Y-86222380D02*
X213347619Y-85746190D01*
X213109523Y-86222380D02*
X213109523Y-85222380D01*
X213490476Y-85222380D01*
X213585714Y-85270000D01*
X213633333Y-85317619D01*
X213680952Y-85412857D01*
X213680952Y-85555714D01*
X213633333Y-85650952D01*
X213585714Y-85698571D01*
X213490476Y-85746190D01*
X213109523Y-85746190D01*
X213966666Y-85222380D02*
X214538095Y-85222380D01*
X214252380Y-86222380D02*
X214252380Y-85222380D01*
X89616666Y-107222380D02*
X89616666Y-107936666D01*
X89569047Y-108079523D01*
X89473809Y-108174761D01*
X89330952Y-108222380D01*
X89235714Y-108222380D01*
X90569047Y-107222380D02*
X90092857Y-107222380D01*
X90045238Y-107698571D01*
X90092857Y-107650952D01*
X90188095Y-107603333D01*
X90426190Y-107603333D01*
X90521428Y-107650952D01*
X90569047Y-107698571D01*
X90616666Y-107793809D01*
X90616666Y-108031904D01*
X90569047Y-108127142D01*
X90521428Y-108174761D01*
X90426190Y-108222380D01*
X90188095Y-108222380D01*
X90092857Y-108174761D01*
X90045238Y-108127142D01*
X89816666Y-79302380D02*
X89816666Y-80016666D01*
X89769047Y-80159523D01*
X89673809Y-80254761D01*
X89530952Y-80302380D01*
X89435714Y-80302380D01*
X90721428Y-79302380D02*
X90530952Y-79302380D01*
X90435714Y-79350000D01*
X90388095Y-79397619D01*
X90292857Y-79540476D01*
X90245238Y-79730952D01*
X90245238Y-80111904D01*
X90292857Y-80207142D01*
X90340476Y-80254761D01*
X90435714Y-80302380D01*
X90626190Y-80302380D01*
X90721428Y-80254761D01*
X90769047Y-80207142D01*
X90816666Y-80111904D01*
X90816666Y-79873809D01*
X90769047Y-79778571D01*
X90721428Y-79730952D01*
X90626190Y-79683333D01*
X90435714Y-79683333D01*
X90340476Y-79730952D01*
X90292857Y-79778571D01*
X90245238Y-79873809D01*
X89816666Y-76402380D02*
X89816666Y-77116666D01*
X89769047Y-77259523D01*
X89673809Y-77354761D01*
X89530952Y-77402380D01*
X89435714Y-77402380D01*
X90721428Y-76735714D02*
X90721428Y-77402380D01*
X90483333Y-76354761D02*
X90245238Y-77069047D01*
X90864285Y-77069047D01*
X150368095Y-124962380D02*
X150368095Y-125771904D01*
X150415714Y-125867142D01*
X150463333Y-125914761D01*
X150558571Y-125962380D01*
X150749047Y-125962380D01*
X150844285Y-125914761D01*
X150891904Y-125867142D01*
X150939523Y-125771904D01*
X150939523Y-124962380D01*
X151844285Y-124962380D02*
X151653809Y-124962380D01*
X151558571Y-125010000D01*
X151510952Y-125057619D01*
X151415714Y-125200476D01*
X151368095Y-125390952D01*
X151368095Y-125771904D01*
X151415714Y-125867142D01*
X151463333Y-125914761D01*
X151558571Y-125962380D01*
X151749047Y-125962380D01*
X151844285Y-125914761D01*
X151891904Y-125867142D01*
X151939523Y-125771904D01*
X151939523Y-125533809D01*
X151891904Y-125438571D01*
X151844285Y-125390952D01*
X151749047Y-125343333D01*
X151558571Y-125343333D01*
X151463333Y-125390952D01*
X151415714Y-125438571D01*
X151368095Y-125533809D01*
X190873809Y-113226190D02*
X190873809Y-113702380D01*
X190540476Y-112702380D02*
X190873809Y-113226190D01*
X191207142Y-112702380D01*
X192064285Y-113702380D02*
X191492857Y-113702380D01*
X191778571Y-113702380D02*
X191778571Y-112702380D01*
X191683333Y-112845238D01*
X191588095Y-112940476D01*
X191492857Y-112988095D01*
X212466666Y-102192380D02*
X212466666Y-102906666D01*
X212419047Y-103049523D01*
X212323809Y-103144761D01*
X212180952Y-103192380D01*
X212085714Y-103192380D01*
X212847619Y-102192380D02*
X213466666Y-102192380D01*
X213133333Y-102573333D01*
X213276190Y-102573333D01*
X213371428Y-102620952D01*
X213419047Y-102668571D01*
X213466666Y-102763809D01*
X213466666Y-103001904D01*
X213419047Y-103097142D01*
X213371428Y-103144761D01*
X213276190Y-103192380D01*
X212990476Y-103192380D01*
X212895238Y-103144761D01*
X212847619Y-103097142D01*
X211823809Y-115472380D02*
X211823809Y-114472380D01*
X212252380Y-114567619D02*
X212300000Y-114520000D01*
X212395238Y-114472380D01*
X212633333Y-114472380D01*
X212728571Y-114520000D01*
X212776190Y-114567619D01*
X212823809Y-114662857D01*
X212823809Y-114758095D01*
X212776190Y-114900952D01*
X212204761Y-115472380D01*
X212823809Y-115472380D01*
X213823809Y-115377142D02*
X213776190Y-115424761D01*
X213633333Y-115472380D01*
X213538095Y-115472380D01*
X213395238Y-115424761D01*
X213300000Y-115329523D01*
X213252380Y-115234285D01*
X213204761Y-115043809D01*
X213204761Y-114900952D01*
X213252380Y-114710476D01*
X213300000Y-114615238D01*
X213395238Y-114520000D01*
X213538095Y-114472380D01*
X213633333Y-114472380D01*
X213776190Y-114520000D01*
X213823809Y-114567619D01*
X129733333Y-123407142D02*
X129685714Y-123454761D01*
X129542857Y-123502380D01*
X129447619Y-123502380D01*
X129304761Y-123454761D01*
X129209523Y-123359523D01*
X129161904Y-123264285D01*
X129114285Y-123073809D01*
X129114285Y-122930952D01*
X129161904Y-122740476D01*
X129209523Y-122645238D01*
X129304761Y-122550000D01*
X129447619Y-122502380D01*
X129542857Y-122502380D01*
X129685714Y-122550000D01*
X129733333Y-122597619D01*
X130590476Y-122502380D02*
X130400000Y-122502380D01*
X130304761Y-122550000D01*
X130257142Y-122597619D01*
X130161904Y-122740476D01*
X130114285Y-122930952D01*
X130114285Y-123311904D01*
X130161904Y-123407142D01*
X130209523Y-123454761D01*
X130304761Y-123502380D01*
X130495238Y-123502380D01*
X130590476Y-123454761D01*
X130638095Y-123407142D01*
X130685714Y-123311904D01*
X130685714Y-123073809D01*
X130638095Y-122978571D01*
X130590476Y-122930952D01*
X130495238Y-122883333D01*
X130304761Y-122883333D01*
X130209523Y-122930952D01*
X130161904Y-122978571D01*
X130114285Y-123073809D01*
X201980476Y-68862380D02*
X202647142Y-69862380D01*
X202647142Y-68862380D02*
X201980476Y-69862380D01*
X203551904Y-69862380D02*
X202980476Y-69862380D01*
X203266190Y-69862380D02*
X203266190Y-68862380D01*
X203170952Y-69005238D01*
X203075714Y-69100476D01*
X202980476Y-69148095D01*
X120288095Y-122102380D02*
X120288095Y-122911904D01*
X120335714Y-123007142D01*
X120383333Y-123054761D01*
X120478571Y-123102380D01*
X120669047Y-123102380D01*
X120764285Y-123054761D01*
X120811904Y-123007142D01*
X120859523Y-122911904D01*
X120859523Y-122102380D01*
X121764285Y-122435714D02*
X121764285Y-123102380D01*
X121526190Y-122054761D02*
X121288095Y-122769047D01*
X121907142Y-122769047D01*
X181666666Y-60454761D02*
X181809523Y-60502380D01*
X182047619Y-60502380D01*
X182142857Y-60454761D01*
X182190476Y-60407142D01*
X182238095Y-60311904D01*
X182238095Y-60216666D01*
X182190476Y-60121428D01*
X182142857Y-60073809D01*
X182047619Y-60026190D01*
X181857142Y-59978571D01*
X181761904Y-59930952D01*
X181714285Y-59883333D01*
X181666666Y-59788095D01*
X181666666Y-59692857D01*
X181714285Y-59597619D01*
X181761904Y-59550000D01*
X181857142Y-59502380D01*
X182095238Y-59502380D01*
X182238095Y-59550000D01*
X182571428Y-59502380D02*
X182809523Y-60502380D01*
X183000000Y-59788095D01*
X183190476Y-60502380D01*
X183428571Y-59502380D01*
X184333333Y-60502380D02*
X183761904Y-60502380D01*
X184047619Y-60502380D02*
X184047619Y-59502380D01*
X183952380Y-59645238D01*
X183857142Y-59740476D01*
X183761904Y-59788095D01*
X176197619Y-56402380D02*
X175864285Y-55926190D01*
X175626190Y-56402380D02*
X175626190Y-55402380D01*
X176007142Y-55402380D01*
X176102380Y-55450000D01*
X176150000Y-55497619D01*
X176197619Y-55592857D01*
X176197619Y-55735714D01*
X176150000Y-55830952D01*
X176102380Y-55878571D01*
X176007142Y-55926190D01*
X175626190Y-55926190D01*
X176626190Y-55878571D02*
X176959523Y-55878571D01*
X177102380Y-56402380D02*
X176626190Y-56402380D01*
X176626190Y-55402380D01*
X177102380Y-55402380D01*
X177483333Y-56354761D02*
X177626190Y-56402380D01*
X177864285Y-56402380D01*
X177959523Y-56354761D01*
X178007142Y-56307142D01*
X178054761Y-56211904D01*
X178054761Y-56116666D01*
X178007142Y-56021428D01*
X177959523Y-55973809D01*
X177864285Y-55926190D01*
X177673809Y-55878571D01*
X177578571Y-55830952D01*
X177530952Y-55783333D01*
X177483333Y-55688095D01*
X177483333Y-55592857D01*
X177530952Y-55497619D01*
X177578571Y-55450000D01*
X177673809Y-55402380D01*
X177911904Y-55402380D01*
X178054761Y-55450000D01*
X178483333Y-55878571D02*
X178816666Y-55878571D01*
X178959523Y-56402380D02*
X178483333Y-56402380D01*
X178483333Y-55402380D01*
X178959523Y-55402380D01*
X179245238Y-55402380D02*
X179816666Y-55402380D01*
X179530952Y-56402380D02*
X179530952Y-55402380D01*
X104216666Y-116202380D02*
X104216666Y-116916666D01*
X104169047Y-117059523D01*
X104073809Y-117154761D01*
X103930952Y-117202380D01*
X103835714Y-117202380D01*
X105216666Y-117202380D02*
X104645238Y-117202380D01*
X104930952Y-117202380D02*
X104930952Y-116202380D01*
X104835714Y-116345238D01*
X104740476Y-116440476D01*
X104645238Y-116488095D01*
X110483333Y-115907142D02*
X110435714Y-115954761D01*
X110292857Y-116002380D01*
X110197619Y-116002380D01*
X110054761Y-115954761D01*
X109959523Y-115859523D01*
X109911904Y-115764285D01*
X109864285Y-115573809D01*
X109864285Y-115430952D01*
X109911904Y-115240476D01*
X109959523Y-115145238D01*
X110054761Y-115050000D01*
X110197619Y-115002380D01*
X110292857Y-115002380D01*
X110435714Y-115050000D01*
X110483333Y-115097619D01*
X111340476Y-115335714D02*
X111340476Y-116002380D01*
X111102380Y-114954761D02*
X110864285Y-115669047D01*
X111483333Y-115669047D01*
M02*
