M48
; DRILL file {KiCad 5.1.4+dfsg1-2} date jeu. 28 nov. 2019 17:33:20 CET
; FORMAT={-:-/ absolute / metric / decimal}
; #@! TF.CreationDate,2019-11-28T17:33:20+01:00
; #@! TF.GenerationSoftware,Kicad,Pcbnew,5.1.4+dfsg1-2
; #@! TF.FileFunction,Plated,1,2,PTH
FMAT,2
METRIC
T1C0.400
T2C0.800
T3C1.000
T4C1.100
%
G90
G05
T1
X109.2Y-114.5
X121.95Y-69.2
X123.2Y-70.4
X126.4Y-71.35
X127.35Y-72.3
X128.3Y-73.2
X129.1Y-74.05
X130.0Y-74.85
X149.8Y-120.05
X149.9Y-108.6
X157.15Y-110.15
X169.35Y-88.7
X169.4Y-82.2
X170.9Y-88.7
X172.6Y-84.75
X176.15Y-87.25
X177.75Y-81.75
X178.3Y-92.3
X191.9Y-112.25
X197.3Y-94.1
X206.7Y-81.95
X208.65Y-82.0
X209.9Y-85.1
T2
X199.9Y-116.4
X202.4Y-116.4
X149.45Y-64.9
X151.95Y-64.9
X170.15Y-59.8
X170.15Y-62.3
X160.25Y-66.25
X162.75Y-66.25
X194.25Y-114.15
X196.75Y-114.15
X96.0Y-59.3
X96.0Y-61.84
X96.0Y-64.38
X96.0Y-66.92
X96.0Y-69.46
X96.0Y-72.0
X96.0Y-74.54
X96.0Y-77.08
X96.0Y-79.62
X96.0Y-82.16
X96.0Y-84.7
X96.0Y-87.24
X96.0Y-89.78
X96.0Y-92.32
X96.0Y-94.86
X96.0Y-97.4
X96.0Y-99.94
X96.0Y-102.48
X96.0Y-105.02
X96.0Y-107.56
X111.24Y-59.3
X111.24Y-61.84
X111.24Y-64.38
X111.24Y-66.92
X111.24Y-69.46
X111.24Y-72.0
X111.24Y-74.54
X111.24Y-77.08
X111.24Y-79.62
X111.24Y-82.16
X111.24Y-84.7
X111.24Y-87.24
X111.24Y-89.78
X111.24Y-92.32
X111.24Y-94.86
X111.24Y-97.4
X111.24Y-99.94
X111.24Y-102.48
X111.24Y-105.02
X111.24Y-107.56
X115.25Y-94.85
X115.25Y-97.35
X185.75Y-114.15
X188.25Y-114.15
X187.05Y-77.1
X187.05Y-79.64
X187.05Y-82.18
X187.05Y-84.72
X187.05Y-87.26
X187.05Y-89.8
X187.05Y-92.34
X187.05Y-94.88
X187.05Y-97.42
X187.05Y-99.96
X187.05Y-102.5
X187.05Y-105.04
X194.67Y-77.1
X194.67Y-79.64
X194.67Y-82.18
X194.67Y-84.72
X194.67Y-87.26
X194.67Y-89.8
X194.67Y-92.34
X194.67Y-94.88
X194.67Y-97.42
X194.67Y-99.96
X194.67Y-102.5
X194.67Y-105.04
X186.925Y-60.575
X186.925Y-63.115
X186.925Y-65.655
X186.925Y-68.195
X186.925Y-70.735
X135.5Y-116.95
X135.5Y-119.45
X199.88Y-89.84
X199.88Y-92.38
X199.88Y-94.92
X199.88Y-97.46
X199.88Y-100.0
X199.88Y-102.54
X199.88Y-105.08
X199.88Y-107.62
X199.88Y-110.16
X199.88Y-112.7
X207.5Y-89.84
X207.5Y-92.38
X207.5Y-94.92
X207.5Y-97.46
X207.5Y-100.0
X207.5Y-102.54
X207.5Y-105.08
X207.5Y-107.62
X207.5Y-110.16
X207.5Y-112.7
X154.7Y-58.5
X167.4Y-58.5
X120.76Y-77.13
X120.76Y-79.67
X120.76Y-82.21
X120.76Y-84.75
X120.76Y-87.29
X120.76Y-89.83
X120.76Y-92.37
X120.76Y-94.91
X120.76Y-97.45
X120.76Y-99.99
X120.76Y-102.53
X120.76Y-105.07
X120.76Y-107.61
X120.76Y-110.15
X136.0Y-77.13
X136.0Y-79.67
X136.0Y-82.21
X136.0Y-84.75
X136.0Y-87.29
X136.0Y-89.83
X136.0Y-92.37
X136.0Y-94.91
X136.0Y-97.45
X136.0Y-99.99
X136.0Y-102.53
X136.0Y-105.07
X136.0Y-107.61
X136.0Y-110.15
X115.25Y-107.65
X115.25Y-110.15
X134.25Y-59.85
X134.25Y-62.35
X166.21Y-118.65
X166.21Y-126.27
X168.75Y-118.65
X168.75Y-126.27
X171.29Y-118.65
X171.29Y-126.27
X173.83Y-118.65
X173.83Y-126.27
X176.37Y-118.65
X176.37Y-126.27
X178.91Y-118.65
X178.91Y-126.27
X181.45Y-118.65
X181.45Y-126.27
X183.99Y-118.65
X183.99Y-126.27
X186.53Y-118.65
X186.53Y-126.27
X189.07Y-118.65
X189.07Y-126.27
X191.61Y-118.65
X191.61Y-126.27
X194.15Y-118.65
X194.15Y-126.27
X188.27Y-109.7
X193.15Y-109.7
X138.48Y-57.28
X138.48Y-59.82
X138.48Y-62.36
X138.48Y-64.9
X146.1Y-57.28
X146.1Y-59.82
X146.1Y-62.36
X146.1Y-64.9
X166.15Y-65.65
X166.15Y-68.19
X166.15Y-70.73
X166.15Y-73.27
X166.15Y-75.81
X166.15Y-78.35
X166.15Y-80.89
X166.15Y-83.43
X166.15Y-85.97
X166.15Y-88.51
X166.15Y-91.05
X166.15Y-93.59
X166.15Y-96.13
X166.15Y-98.67
X166.15Y-101.21
X166.15Y-103.75
X166.15Y-106.29
X166.15Y-108.83
X166.15Y-111.37
X166.15Y-113.91
X181.39Y-65.65
X181.39Y-68.19
X181.39Y-70.73
X181.39Y-73.27
X181.39Y-75.81
X181.39Y-78.35
X181.39Y-80.89
X181.39Y-83.43
X181.39Y-85.97
X181.39Y-88.51
X181.39Y-91.05
X181.39Y-93.59
X181.39Y-96.13
X181.39Y-98.67
X181.39Y-101.21
X181.39Y-103.75
X181.39Y-106.29
X181.39Y-108.83
X181.39Y-111.37
X181.39Y-113.91
X192.2Y-73.4
X194.7Y-73.4
X198.1Y-123.75
X198.1Y-126.25
X149.525Y-57.325
X149.525Y-59.825
X114.45Y-117.1
X114.45Y-119.6
X211.9Y-58.15
X211.9Y-60.65
X126.15Y-124.4
X126.15Y-126.9
X97.05Y-119.6
X97.05Y-122.1
T3
X86.75Y-82.15
X86.75Y-84.69
X86.75Y-87.23
X86.75Y-89.77
X86.75Y-92.31
X86.75Y-94.85
X86.75Y-97.39
X86.75Y-99.93
X89.29Y-82.15
X89.29Y-84.69
X89.29Y-87.23
X89.29Y-89.77
X89.29Y-92.31
X89.29Y-94.85
X89.29Y-97.39
X89.29Y-99.93
X132.05Y-126.9
X134.59Y-126.9
X212.8Y-75.82
X212.8Y-78.36
X212.8Y-80.9
X212.8Y-83.44
X212.8Y-105.07
X212.8Y-107.61
X212.8Y-110.15
X212.8Y-112.69
X198.98Y-58.15
X198.98Y-65.77
X206.6Y-58.15
X206.6Y-65.77
X86.75Y-56.8
X86.75Y-59.34
X86.75Y-61.88
X86.75Y-64.42
X86.75Y-66.96
X86.75Y-69.5
X86.75Y-72.04
X86.75Y-74.58
X89.29Y-56.8
X89.29Y-59.34
X89.29Y-61.88
X89.29Y-64.42
X89.29Y-66.96
X89.29Y-69.5
X89.29Y-72.04
X89.29Y-74.58
X143.51Y-75.85
X143.51Y-78.39
X143.51Y-80.93
X143.51Y-83.47
X143.51Y-86.01
X143.51Y-88.55
X143.51Y-91.09
X143.51Y-93.63
X143.51Y-96.17
X143.51Y-98.71
X143.51Y-101.25
X143.51Y-103.79
X143.51Y-106.33
X143.51Y-108.87
X143.51Y-111.41
X143.51Y-113.95
X158.75Y-75.85
X158.75Y-78.39
X158.75Y-80.93
X158.75Y-83.47
X158.75Y-86.01
X158.75Y-88.55
X158.75Y-91.09
X158.75Y-93.63
X158.75Y-96.17
X158.75Y-98.71
X158.75Y-101.25
X158.75Y-103.79
X158.75Y-106.33
X158.75Y-108.87
X158.75Y-111.41
X158.75Y-113.95
X86.75Y-110.1
X86.75Y-112.64
X86.75Y-115.18
X86.75Y-117.72
X86.75Y-120.26
X86.75Y-122.8
X86.75Y-125.34
X86.75Y-127.88
X89.29Y-110.1
X89.29Y-112.64
X89.29Y-115.18
X89.29Y-117.72
X89.29Y-120.26
X89.29Y-122.8
X89.29Y-125.34
X89.29Y-127.88
T4
X114.45Y-126.9
X116.99Y-126.9
X119.53Y-126.9
X174.4Y-57.8
X174.4Y-62.3
X180.9Y-57.8
X180.9Y-62.3
T3
G00X103.55Y-119.6
M15
G01X105.55Y-119.6
M16
G05
G00X103.55Y-125.6
M15
G01X105.55Y-125.6
M16
G05
G00X109.25Y-123.6
M15
G01X109.25Y-121.6
M16
G05
T0
M30
